<svg width="90" height="90" viewBox="0 0 90 90" fill="none" xmlns="http://www.w3.org/2000/svg">
<g filter="url(#filter0_d)">
<path d="M66.2096 13.7835C54.4923 2.06968 35.4974 2.07249 23.7835 13.79C12.0697 25.5074 12.0725 44.5022 23.79 56.216C35.5075 67.9299 54.5022 67.9271 66.2161 56.2096C71.8417 50.5822 75.0013 42.9504 74.9996 34.9933C74.9979 27.0375 71.8361 19.4082 66.2096 13.7835ZM60.4336 46.7893C60.4323 46.7906 60.431 46.792 60.4296 46.7933V46.7833L58.9096 48.2933C56.9438 50.2839 54.0808 51.103 51.3596 50.4533C48.618 49.7195 46.0118 48.5513 43.6397 46.9933C41.4359 45.5849 39.3936 43.9384 37.5498 42.0833C35.8533 40.3993 34.3291 38.5501 32.9998 36.5634C31.5457 34.4257 30.3948 32.097 29.5798 29.6434C28.6455 26.7611 29.4197 23.5984 31.5798 21.4735L33.3598 19.6936C33.8547 19.1965 34.6588 19.1947 35.1558 19.6896C35.1571 19.6909 35.1585 19.6922 35.1598 19.6936L40.7797 25.3135C41.2768 25.8084 41.2785 26.6125 40.7837 27.1095C40.7824 27.1108 40.7811 27.1121 40.7797 27.1135L37.4797 30.4135C36.5328 31.35 36.4138 32.8383 37.1997 33.9135C38.3933 35.5515 39.7141 37.0928 41.1498 38.5235C42.7504 40.131 44.4905 41.5934 46.3497 42.8935C47.4239 43.6427 48.8803 43.5164 49.8096 42.5935L52.9995 39.3535C53.4944 38.8564 54.2986 38.8546 54.7955 39.3495C54.7968 39.3508 54.7981 39.3521 54.7995 39.3535L60.4295 44.9934C60.9267 45.4882 60.9285 46.2922 60.4336 46.7893Z" fill="#26A412" fill-opacity="0.85"/>
</g>
<defs>
<filter id="filter0_d" x="0" y="0" width="90" height="90" filterUnits="userSpaceOnUse" color-interpolation-filters="sRGB">
<feFlood flood-opacity="0" result="BackgroundImageFix"/>
<feColorMatrix in="SourceAlpha" type="matrix" values="0 0 0 0 0 0 0 0 0 0 0 0 0 0 0 0 0 0 127 0"/>
<feOffset dy="10"/>
<feGaussianBlur stdDeviation="7.5"/>
<feColorMatrix type="matrix" values="0 0 0 0 0.188235 0 0 0 0 0.654902 0 0 0 0 0.105882 0 0 0 0.32 0"/>
<feBlend mode="normal" in2="BackgroundImageFix" result="effect1_dropShadow"/>
<feBlend mode="normal" in="SourceGraphic" in2="effect1_dropShadow" result="shape"/>
</filter>
</defs>
</svg>
