<svg width="50" height="50" viewBox="0 0 50 50" fill="none" xmlns="http://www.w3.org/2000/svg">
<path d="M6.25227 13.5962C4.90499 13.5962 3.80859 14.6926 3.80859 16.0399C3.80859 17.3871 4.90499 18.4835 6.25227 18.4835C7.59954 18.4835 8.69594 17.3871 8.69594 16.0399C8.69594 14.6926 7.59954 13.5962 6.25227 13.5962ZM6.25227 16.8544C5.80344 16.8544 5.43771 16.4887 5.43771 16.0399C5.43771 15.591 5.80344 15.2253 6.25227 15.2253C6.70109 15.2253 7.06682 15.591 7.06682 16.0399C7.06682 16.4887 6.70109 16.8544 6.25227 16.8544Z" fill="#FB8976"/>
<path d="M50 20.6885L48.8482 19.5368L37.1919 31.1931C37.1479 31.1434 37.1129 31.0872 37.0656 31.0391L30.2119 24.1854L31.2652 23.1322L30.1134 21.9804L27.695 24.3988C26.399 25.694 24.3927 25.8732 22.8997 24.9356L28.8191 19.0627C28.8199 19.0619 28.8199 19.0611 28.8207 19.0602L44.2973 3.58364L43.1455 2.43185L28.2456 17.3317L27.1924 16.2785C27.0401 16.1254 26.8323 16.0399 26.6165 16.0399H23.6955L22.305 14.6494L10.9012 3.2456L9.74944 4.39738L17.3191 11.9671L6.90093 22.3853L1.10128 17.0686L0 18.2701L9.51078 26.9875V29.0728C9.51078 29.2886 9.5963 29.4963 9.74944 29.6487L13.2724 33.1716C12.9507 33.6058 12.769 34.1255 12.769 34.6761C12.769 36.0478 13.8621 37.1613 15.2216 37.2094C15.2689 38.5388 16.336 39.6058 17.6653 39.6531C17.7126 40.9824 18.7796 42.0495 20.109 42.0967C20.157 43.4562 21.2714 44.5494 22.6423 44.5494C22.9885 44.5494 23.324 44.4785 23.6336 44.3474L23.6955 44.4093C24.3105 45.0251 25.1291 45.3639 25.9999 45.3639C26.8706 45.3639 27.6884 45.0251 28.3034 44.4093L37.0656 35.6471C37.6814 35.0313 38.0203 34.2135 38.0203 33.3435C38.0203 33.135 37.9983 32.9297 37.96 32.7285L50 20.6885ZM8.10322 23.4874L18.4709 13.1189L20.5774 15.2253L10.3009 25.5018L8.10322 23.4874ZM15.9572 35.3221C15.7845 35.4939 15.5556 35.5892 15.3112 35.5892C14.8078 35.5892 14.3981 35.1795 14.3981 34.6761C14.3981 34.4318 14.4934 34.2029 14.6653 34.0302L18.541 30.1545C18.7136 29.9826 18.9425 29.8873 19.1869 29.8873C19.6903 29.8873 20.1 30.2971 20.1 30.8005C20.1 31.0448 20.0047 31.2737 19.8329 31.4464L15.9572 35.3221ZM18.4009 37.7657C18.2282 37.9376 17.9993 38.0329 17.7549 38.0329C17.2515 38.0329 16.8418 37.6232 16.8418 37.1198C16.8418 36.8754 16.9371 36.6465 17.109 36.4739L20.9846 32.5982C21.1573 32.4263 21.3862 32.331 21.6306 32.331C22.134 32.331 22.5437 32.7407 22.5437 33.2441C22.5437 33.4885 22.4484 33.7174 22.2765 33.8901L18.4009 37.7657ZM20.8445 40.2094C20.6718 40.3813 20.443 40.4766 20.1986 40.4766C19.6952 40.4766 19.2855 40.0669 19.2855 39.5635C19.2855 39.3191 19.3808 39.0902 19.5526 38.9175L23.4283 35.0419C23.601 34.87 23.8299 34.7747 24.0743 34.7747C24.5777 34.7747 24.9874 35.1844 24.9874 35.6878C24.9874 35.9322 24.8921 36.1611 24.7202 36.3337L20.8445 40.2094ZM23.2882 42.6531C23.1155 42.825 22.8866 42.9203 22.6423 42.9203C22.1389 42.9203 21.7291 42.5105 21.7291 42.0071C21.7291 41.7628 21.8244 41.5339 21.9963 41.3612L25.872 37.4855C26.0447 37.3137 26.2736 37.2184 26.5179 37.2184C27.0213 37.2184 27.431 37.6281 27.431 38.1315C27.431 38.3758 27.3357 38.6047 27.1639 38.7774L23.2882 42.6531ZM35.9139 34.4953L27.1517 43.2575C26.5595 43.8497 25.5494 43.866 24.9255 43.3202L28.3165 39.9292C28.7954 39.4494 29.0602 38.8108 29.0602 38.1315C29.0602 36.7598 27.967 35.6463 26.6075 35.5982C26.5603 34.2688 25.4932 33.2018 24.1639 33.1545C24.1166 31.8252 23.0495 30.7581 21.7202 30.7109C21.6721 29.3514 20.5578 28.2582 19.1869 28.2582C18.5076 28.2582 17.869 28.523 17.3892 29.0027L14.3981 31.9938L11.1399 28.7356V26.9663L21.7291 16.3771L22.7824 17.4303C22.9347 17.5834 23.1424 17.669 23.3583 17.669H26.2793L27.0914 18.4811L21.1044 24.4217C20.9504 24.5748 20.8633 24.7841 20.8641 25.0016C20.8649 25.2191 20.9521 25.4276 21.1068 25.58C23.2483 27.6897 26.7216 27.6766 28.8468 25.5498L29.0602 25.3372L35.9139 32.1909C36.2218 32.4988 36.3912 32.9077 36.3912 33.3435C36.3912 33.7793 36.2218 34.1874 35.9139 34.4953Z" fill="#FB8976"/>
<path d="M5.67955 35.5396L4.25 36.3215C4.51799 36.8111 4.80797 37.299 5.1118 37.7706L6.48189 36.8893C6.19843 36.4494 5.92881 35.9957 5.67955 35.5396Z" fill="#FB8976"/>
<path d="M17.3029 45.6132L16.7319 47.1389C17.2541 47.3344 17.7925 47.5136 18.3334 47.6716L18.7911 46.1085C18.2886 45.961 17.7884 45.7949 17.3029 45.6132Z" fill="#FB8976"/>
<path d="M11.8064 42.6066L10.8281 43.9099C11.2761 44.2463 11.7429 44.5705 12.2137 44.8735L13.095 43.5035C12.6568 43.2208 12.2227 42.9194 11.8064 42.6066Z" fill="#FB8976"/>
<path d="M14.446 44.3075L13.6641 45.7362C14.1544 46.0042 14.6619 46.2592 15.1726 46.493L15.8512 45.0121C15.3754 44.7938 14.903 44.5567 14.446 44.3075Z" fill="#FB8976"/>
<path d="M9.43336 40.5491L8.28076 41.7C8.67664 42.0967 9.09206 42.4836 9.51482 42.8502L10.5827 41.6194C10.1885 41.2781 9.80236 40.9173 9.43336 40.5491Z" fill="#FB8976"/>
<path d="M7.37654 38.1771L6.07324 39.1546C6.41047 39.6042 6.76643 40.0457 7.13135 40.4668L8.36215 39.399C8.0233 39.0072 7.69177 38.5958 7.37654 38.1771Z" fill="#FB8976"/>
<path d="M3.04936 26.5729L1.42432 26.6886C1.46342 27.2466 1.52369 27.8102 1.6027 28.365L3.21553 28.1353C3.14222 27.618 3.08602 27.0926 3.04936 26.5729Z" fill="#FB8976"/>
<path d="M1.4247 23.3171C1.38478 23.871 1.36523 24.4371 1.36523 25V25.0024L2.99435 25C2.99435 24.4754 3.01308 23.9475 3.04974 23.4327L1.4247 23.3171Z" fill="#FB8976"/>
<path d="M3.49301 29.6788L1.90137 30.025C2.02029 30.5732 2.1604 31.123 2.31761 31.659L3.88074 31.2012C3.73494 30.7019 3.60461 30.1896 3.49301 29.6788Z" fill="#FB8976"/>
<path d="M4.37609 32.6895L2.84961 33.2596C3.0451 33.7826 3.26178 34.3064 3.49474 34.8154L4.97642 34.1386C4.75975 33.6637 4.55774 33.1766 4.37609 32.6895Z" fill="#FB8976"/>
<path d="M44.9989 34.1377C44.7806 34.6134 44.5435 35.0858 44.2935 35.5428L45.723 36.3248C45.991 35.8344 46.246 35.3269 46.4797 34.8162L44.9989 34.1377Z" fill="#FB8976"/>
<path d="M43.4904 36.8934C43.2069 37.3332 42.9047 37.7666 42.5928 38.1828L43.8961 39.1611C44.2317 38.7147 44.5559 38.248 44.8605 37.7755L43.4904 36.8934Z" fill="#FB8976"/>
<path d="M41.6055 39.4046C41.2642 39.7988 40.9042 40.1858 40.5352 40.5539L41.6861 41.7065C42.0828 41.3107 42.4697 40.8952 42.8363 40.4725L41.6055 39.4046Z" fill="#FB8976"/>
<path d="M46.0954 31.1971C45.9479 31.6981 45.7817 32.199 45.6001 32.6862L47.1258 33.2563C47.3221 32.7326 47.5005 32.1933 47.6585 31.6549L46.0954 31.1971Z" fill="#FB8976"/>
<path d="M46.7597 28.1312C46.6856 28.6492 46.5919 29.1689 46.4819 29.6764L48.0744 30.0209C48.1925 29.476 48.2927 28.918 48.3717 28.3609L46.7597 28.1312Z" fill="#FB8976"/>
<path d="M39.3857 41.6251C38.9931 41.9656 38.5818 42.2971 38.1631 42.6115L39.1406 43.9148C39.5894 43.5784 40.0309 43.2225 40.4528 42.8567L39.3857 41.6251Z" fill="#FB8976"/>
<path d="M20.3123 46.4962L19.9678 48.0879C20.5127 48.206 21.0707 48.3062 21.6278 48.3852L21.8575 46.7732C21.3395 46.699 20.8198 46.6054 20.3123 46.4962Z" fill="#FB8976"/>
<path d="M46.9804 25C46.9804 25.5238 46.9624 26.0524 46.9258 26.5697L48.5508 26.6845C48.5899 26.1282 48.6095 25.5612 48.6095 25H46.9804Z" fill="#FB8976"/>
<path d="M28.1209 46.7715C27.6045 46.8449 27.0791 46.9011 26.5586 46.9377L26.6743 48.5628C27.2322 48.5237 27.7959 48.4634 28.3506 48.3844L28.1209 46.7715Z" fill="#FB8976"/>
<path d="M24.9876 46.9931C24.4638 46.9931 23.9368 46.9752 23.4195 46.9385L23.3047 48.5636C23.8602 48.6027 24.4271 48.6222 24.9884 48.6222L24.9876 46.9931Z" fill="#FB8976"/>
<path d="M36.8748 43.5068C36.4382 43.7878 35.9845 44.0574 35.5259 44.3083L36.3079 45.7379C36.7998 45.4682 37.287 45.1791 37.7561 44.8769L36.8748 43.5068Z" fill="#FB8976"/>
<path d="M34.1246 45.0112C33.6497 45.2279 33.1626 45.4307 32.6763 45.6116L33.2456 47.138C33.7686 46.9425 34.2923 46.7259 34.8014 46.4929L34.1246 45.0112Z" fill="#FB8976"/>
<path d="M31.187 46.1077C30.6876 46.2535 30.1761 46.3838 29.6646 46.4954L30.0107 48.087C30.5589 47.9681 31.1088 47.828 31.6447 47.6708L31.187 46.1077Z" fill="#FB8976"/>
<path d="M34.4896 3.44354L33.772 4.90649C34.2241 5.12805 34.6892 5.37812 35.1543 5.64937L35.9754 4.24181C35.476 3.95101 34.9759 3.68221 34.4896 3.44354Z" fill="#FB8976"/>
<path d="M24.987 1.37781L24.6465 1.38025L24.6701 3.00937L24.987 3.00692C25.4171 3.00692 25.8374 3.0167 26.2479 3.03625L26.3245 1.40876C25.8887 1.3884 25.4439 1.37781 24.987 1.37781Z" fill="#FB8976"/>
<path d="M31.3276 2.21112L30.8706 3.77507C31.3634 3.91925 31.8587 4.08786 32.3425 4.27684L32.9363 2.76013C32.4077 2.55323 31.8668 2.36914 31.3276 2.21112Z" fill="#FB8976"/>
<path d="M28.0039 1.5448L27.8149 3.16251C28.3411 3.22442 28.8608 3.30587 29.3593 3.40525L29.677 1.80709C29.137 1.69957 28.5741 1.61159 28.0039 1.5448Z" fill="#FB8976"/>
<path d="M16.4114 2.98251C15.8893 3.18615 15.3688 3.41097 14.8638 3.65127L15.5618 5.12317C16.0327 4.89998 16.5181 4.68983 17.0044 4.50003L16.4114 2.98251Z" fill="#FB8976"/>
<path d="M19.6322 1.98795C19.0856 2.11502 18.5374 2.26245 18.0039 2.42781L18.4853 3.98442C18.9814 3.83047 19.4913 3.69281 20.0004 3.5747L19.6322 1.98795Z" fill="#FB8976"/>
<path d="M22.9633 1.46335C22.4037 1.51141 21.84 1.57902 21.2886 1.66617L21.5427 3.27574C22.0551 3.19428 22.5796 3.13075 23.101 3.08676L22.9633 1.46335Z" fill="#FB8976"/>
</svg>
