<svg width="50" height="50" viewBox="0 0 50 50" fill="none" xmlns="http://www.w3.org/2000/svg">
<g clip-path="url(#clip0)">
<path d="M42.4838 16.7083C42.4832 16.7083 42.4826 16.7083 42.4821 16.7083H0.715873C0.320974 16.7079 0.000418071 17.0276 4.08739e-07 17.4225C4.08739e-07 17.423 4.08739e-07 17.4237 4.08739e-07 17.4242V37.472C-0.000417253 37.8669 0.319303 38.1874 0.714203 38.1878C0.714725 38.1878 0.715351 38.1878 0.715873 38.1878H29.1169C29.5122 38.1878 29.8328 37.8673 29.8328 37.472C29.8328 37.0766 29.5122 36.7561 29.1169 36.7561H1.43175V18.1401H41.7662V19.9302C41.7658 20.3251 42.0855 20.6456 42.4804 20.646C42.4809 20.646 42.4816 20.646 42.4821 20.646C42.877 20.6464 43.1975 20.3267 43.198 19.9318C43.198 19.9313 43.198 19.9307 43.198 19.9302V17.4242C43.1984 17.0293 42.8787 16.7088 42.4838 16.7083Z" fill="#78066D"/>
<path d="M37.627 13.3845L4.21399 5.86657C4.02855 5.82511 3.83423 5.85874 3.67354 5.96012C3.51305 6.06235 3.39955 6.22388 3.35778 6.40953L1.68714 13.9274C1.60131 14.3136 1.8448 14.6962 2.23093 14.782C2.61706 14.8678 2.99964 14.6243 3.08547 14.2382L4.59991 7.4211L37.3129 14.7811C37.3647 14.7932 37.4176 14.7991 37.4708 14.7987C37.8661 14.798 38.186 14.4769 38.1854 14.0816C38.1847 13.7473 37.9529 13.4581 37.627 13.3845Z" fill="#78066D"/>
<path d="M33.5696 9.24215L13.5218 0.888904C13.1734 0.743662 12.7719 0.892871 12.6029 1.23055L10.9323 4.57185C10.7436 4.9208 10.8735 5.35674 11.2226 5.54542C11.5715 5.7341 12.0075 5.6042 12.1961 5.25514C12.2036 5.24146 12.2105 5.22747 12.217 5.21327V5.21494L13.5878 2.47174L33.0166 10.5669C33.3825 10.7195 33.8028 10.5468 33.9555 10.1809C34.1082 9.81528 33.9355 9.39491 33.5696 9.24215Z" fill="#78066D"/>
<path d="M34.0763 20.0496H27.4463C27.051 20.0496 26.7305 20.3701 26.7305 20.7654C26.7305 21.1608 27.051 21.4813 27.4463 21.4813H34.0763C34.4716 21.4813 34.7922 21.1608 34.7922 20.7654C34.7922 20.3701 34.4716 20.0496 34.0763 20.0496Z" fill="#78066D"/>
<path d="M20.7635 20.0972C16.7037 20.0972 13.4126 23.3882 13.4126 27.448C13.4168 31.506 16.7054 34.7947 20.7635 34.7989C24.8232 34.7989 28.1143 31.5078 28.1143 27.448C28.1143 23.3882 24.8232 20.0972 20.7635 20.0972ZM20.7635 33.4623C17.4418 33.4623 14.7491 30.7697 14.7491 27.448C14.7528 24.1279 17.4434 21.4373 20.7635 21.4337C24.0851 21.4337 26.7778 24.1263 26.7778 27.448C26.7778 30.7697 24.0851 33.4623 20.7635 33.4623Z" fill="#78066D"/>
<path d="M40.8111 22.4361C36.3839 22.4361 31.6226 23.4819 31.6226 25.7774V45.8252C31.6226 48.1206 36.3839 49.1665 40.8111 49.1665C45.2383 49.1665 49.9997 48.1206 49.9997 45.8252V25.7774C49.9997 23.4819 45.2383 22.4361 40.8111 22.4361ZM48.329 45.8126C48.2029 46.2762 45.6978 47.4958 40.8111 47.4958C35.9245 47.4958 33.4193 46.2762 33.2932 45.8252V44.512C35.0708 45.4075 38.0069 45.8252 40.8111 45.8252C43.6153 45.8252 46.5523 45.4033 48.329 44.5112V45.8126ZM48.329 42.4713C48.2029 42.9349 45.6978 44.1545 40.8111 44.1545C35.9245 44.1545 33.4193 42.9349 33.2932 42.4839V41.1707C35.0708 42.0662 38.0069 42.4839 40.8111 42.4839C43.6153 42.4839 46.5523 42.062 48.329 41.1699V42.4713ZM48.329 39.13C48.2029 39.5936 45.6978 40.8132 40.8111 40.8132C35.9245 40.8132 33.4193 39.5936 33.2932 39.1426V37.8294C35.0708 38.7249 38.0069 39.1426 40.8111 39.1426C43.6153 39.1426 46.5523 38.7207 48.329 37.8286V39.13ZM48.329 35.7887C48.2029 36.2523 45.6978 37.4719 40.8111 37.4719C35.9245 37.4719 33.4193 36.2523 33.2932 35.8013V34.4881C35.0708 35.3836 38.0069 35.8013 40.8111 35.8013C43.6153 35.8013 46.5523 35.3794 48.329 34.4873V35.7887ZM48.329 32.4475C48.2029 32.9111 45.6978 34.1306 40.8111 34.1306C35.9245 34.1306 33.4193 32.9111 33.2932 32.46V31.1469C35.0708 32.0381 38.0069 32.46 40.8111 32.46C43.6153 32.46 46.5523 32.0381 48.329 31.146V32.4475ZM48.329 29.1062C48.2029 29.5698 45.6978 30.7893 40.8111 30.7893C35.9245 30.7893 33.4193 29.5698 33.2932 29.1187V27.8056C35.0708 28.6968 38.0069 29.1187 40.8111 29.1187C43.6153 29.1187 46.5523 28.6968 48.329 27.8047V29.1062ZM40.8111 27.448C35.932 27.448 33.4277 26.2318 33.2932 25.7924V25.7874C33.4277 25.3221 35.932 24.1067 40.8111 24.1067C45.656 24.1067 48.162 25.3046 48.329 25.7774C48.162 26.2502 45.656 27.448 40.8111 27.448Z" fill="#78066D"/>
<path d="M14.0809 33.4139H7.76672L4.77291 30.1394V24.7098L8.07913 21.4813H14.0809C14.4763 21.4813 14.7968 21.1608 14.7968 20.7654C14.7968 20.3701 14.4763 20.0496 14.0809 20.0496H7.78843C7.60132 20.0491 7.42141 20.122 7.28724 20.2525L3.55585 23.892C3.41645 24.0549 3.34002 24.2624 3.34033 24.4768V30.4176C3.34033 30.5962 3.40705 30.7684 3.52745 30.9004L6.92137 34.6126C7.057 34.7611 7.24892 34.8457 7.45013 34.8456H14.0809C14.4763 34.8456 14.7968 34.5251 14.7968 34.1298C14.7968 33.7345 14.4764 33.4139 14.0809 33.4139Z" fill="#78066D"/>
<path d="M21.181 26.6127H20.3456C20.0858 26.6127 19.928 26.4674 19.928 26.4039C19.928 26.3404 20.0858 26.1951 20.3456 26.1951H22.4339C22.8953 26.1951 23.2693 25.821 23.2693 25.3597C23.2693 24.8984 22.8953 24.5244 22.4339 24.5244H21.5986C21.5986 24.0631 21.2246 23.6891 20.7633 23.6891C20.302 23.6891 19.928 24.0631 19.928 24.5244V24.562C19.0015 24.6928 18.2996 25.465 18.2573 26.3997C18.3172 27.4949 19.25 28.3364 20.3456 28.2834H21.181C21.4407 28.2834 21.5986 28.4287 21.5986 28.4922C21.5986 28.5557 21.4407 28.701 21.181 28.701H19.0926C18.6313 28.701 18.2573 29.0751 18.2573 29.5364C18.2573 29.9977 18.6313 30.3717 19.0926 30.3717H19.928C19.928 30.833 20.302 31.207 20.7633 31.207C21.2246 31.207 21.5986 30.833 21.5986 30.3717V30.3341C22.5251 30.2033 23.227 29.4311 23.2693 28.4964C23.2094 27.4012 22.2766 26.5597 21.181 26.6127Z" fill="#78066D"/>
</g>
<defs>
<clipPath id="clip0">
<rect width="50" height="50" fill="white"/>
</clipPath>
</defs>
</svg>
