<svg width="50" height="50" viewBox="0 0 50 50" fill="none" xmlns="http://www.w3.org/2000/svg">
<path d="M49.2676 7.66602H45.3125V3.51562C45.3125 3.11113 44.9847 2.7832 44.5801 2.7832H0.732422C0.32793 2.7832 0 3.11113 0 3.51562V35.0261C0 35.4306 0.32793 35.7585 0.732422 35.7585C1.13691 35.7585 1.46484 35.4306 1.46484 35.0261V9.13086H43.8477V16.2679C43.8477 16.6724 44.1755 17.0003 44.5801 17.0003C44.9847 17.0003 45.3125 16.6724 45.3125 16.2679V14.0137H48.5352V45.752H43.7012C43.2966 45.752 42.9688 46.0799 42.9688 46.4844C42.9688 46.8889 43.2966 47.2168 43.7012 47.2168H49.2676C49.6722 47.2168 50 46.8889 50 46.4844V8.39844C50 7.99395 49.6722 7.66602 49.2676 7.66602ZM10.9375 7.66602H1.46484V4.24805H10.9375V7.66602ZM43.8477 7.66602H12.4023V4.24805H43.8477V7.66602ZM48.5352 12.5488H45.3125V9.13086H48.5352V12.5488Z" fill="#8868E4"/>
<path d="M44.5801 18.7012C44.1755 18.7012 43.8477 19.0291 43.8477 19.4336V40.8691H1.46484V38.1836C1.46484 37.7791 1.13691 37.4512 0.732422 37.4512C0.32793 37.4512 0 37.7791 0 38.1836V41.6016C0 42.0061 0.32793 42.334 0.732422 42.334H4.6875V46.4844C4.6875 46.8889 5.01543 47.2168 5.41992 47.2168H40.6291C41.0337 47.2168 41.3615 46.8889 41.3615 46.4844C41.3615 46.0799 41.0337 45.752 40.6291 45.752H6.15234V42.334H44.5801C44.9847 42.334 45.3125 42.0061 45.3125 41.6016V19.4336C45.3125 19.0291 44.9847 18.7012 44.5801 18.7012Z" fill="#8868E4"/>
<path d="M29.9805 31.7546H14.3555C12.8746 31.7546 11.6699 32.9593 11.6699 34.4401V36.3932C11.6699 37.8741 12.8746 39.0788 14.3555 39.0788H29.9805C31.4612 39.0788 32.666 37.8741 32.666 36.3932V34.4401C32.666 32.9593 31.4612 31.7546 29.9805 31.7546ZM31.2012 36.3932C31.2012 37.0664 30.6536 37.614 29.9805 37.614H14.3555C13.6823 37.614 13.1348 37.0664 13.1348 36.3932V34.4401C13.1348 33.767 13.6823 33.2194 14.3555 33.2194H29.9805C30.6536 33.2194 31.2012 33.767 31.2012 34.4401V36.3932Z" fill="#8868E4"/>
<path d="M3.56445 6.68945C3.96896 6.68945 4.29688 6.36154 4.29688 5.95703C4.29688 5.55253 3.96896 5.22461 3.56445 5.22461C3.15995 5.22461 2.83203 5.55253 2.83203 5.95703C2.83203 6.36154 3.15995 6.68945 3.56445 6.68945Z" fill="#8868E4"/>
<path d="M9.0332 6.68945C9.43771 6.68945 9.76562 6.36154 9.76562 5.95703C9.76562 5.55253 9.43771 5.22461 9.0332 5.22461C8.6287 5.22461 8.30078 5.55253 8.30078 5.95703C8.30078 6.36154 8.6287 6.68945 9.0332 6.68945Z" fill="#8868E4"/>
<path d="M6.29883 6.68945C6.70333 6.68945 7.03125 6.36154 7.03125 5.95703C7.03125 5.55253 6.70333 5.22461 6.29883 5.22461C5.89432 5.22461 5.56641 5.55253 5.56641 5.95703C5.56641 6.36154 5.89432 6.68945 6.29883 6.68945Z" fill="#8868E4"/>
<path d="M17.5184 27.2015L12.9146 14.311C12.8107 14.02 12.5354 13.8255 12.2264 13.8248C12.2259 13.8248 12.2254 13.8248 12.2248 13.8248C11.9165 13.8248 11.641 14.018 11.5362 14.308C11.5246 14.3399 10.3722 17.5244 9.23431 20.6894C6.89065 27.2081 6.89026 27.2622 6.8887 27.4415C6.88509 27.846 7.21019 28.1768 7.61468 28.1803C7.61683 28.1803 7.61898 28.1803 7.62122 28.1803C7.97308 28.1803 8.2679 27.9317 8.33782 27.5995C8.41634 27.3343 8.96517 25.7833 9.70433 23.7172H14.7186L16.1389 27.6942C16.2458 27.9937 16.5279 28.1804 16.8286 28.1804C16.9104 28.1804 16.9936 28.1666 17.0749 28.1375C17.4559 28.0015 17.6544 27.5824 17.5184 27.2015ZM10.2292 22.2525C10.8598 20.4952 11.5675 18.5314 12.2206 16.7231L14.1954 22.2525H10.2292Z" fill="#8868E4"/>
<path d="M19.34 13.8249H19.0889C18.6844 13.8249 18.3564 14.1528 18.3564 14.5573V27.4479C18.3564 27.8524 18.6844 28.1803 19.0889 28.1803H19.34C23.2978 28.1803 26.5178 24.9604 26.5178 21.0026C26.5178 17.0448 23.2978 13.8249 19.34 13.8249ZM19.8213 26.6953V15.3098C22.747 15.555 25.0528 18.0145 25.0528 21.0025C25.0528 23.9905 22.747 26.4502 19.8213 26.6953Z" fill="#8868E4"/>
<path d="M32.8962 20.019H31.3517C30.1632 20.019 29.1963 19.0521 29.1963 17.8637V17.4451C29.1963 16.2566 30.1632 15.2897 31.3517 15.2897H32.2725C33.4609 15.2897 34.4278 16.2566 34.4278 17.4451C34.4278 17.8496 34.7557 18.1775 35.1603 18.1775C35.5648 18.1775 35.8927 17.8496 35.8927 17.4451C35.8927 15.4489 34.2687 13.8249 32.2725 13.8249H31.3517C29.3555 13.8249 27.7314 15.4489 27.7314 17.4451V17.8637C27.7314 19.8598 29.3555 21.4839 31.3517 21.4839H32.8962C33.7407 21.4839 34.4278 22.171 34.4278 23.0155V24.56C34.4278 25.7485 33.4609 26.7155 32.2725 26.7155H31.3517C30.1632 26.7155 29.1963 25.7486 29.1963 24.56V24.0997C29.1963 23.6952 28.8684 23.3673 28.4639 23.3673C28.0593 23.3673 27.7314 23.6952 27.7314 24.0997V24.56C27.7314 26.5562 29.3555 28.1803 31.3517 28.1803H32.2725C34.2687 28.1803 35.8927 26.5563 35.8927 24.56V23.0155C35.8927 21.3633 34.5484 20.019 32.8962 20.019Z" fill="#8868E4"/>
</svg>
