<svg width="50" height="50" viewBox="0 0 50 50" fill="none" xmlns="http://www.w3.org/2000/svg">
<g clip-path="url(#clip0)">
<path d="M44.6242 26.3048C44.1919 26.3048 43.8413 26.6553 43.8413 27.0878V48.4343H6.1586V42.119C6.1586 41.6867 5.80811 41.3361 5.37569 41.3361C4.94336 41.3361 4.59277 41.6866 4.59277 42.119V49.2172C4.59277 49.6495 4.94326 50.0001 5.37569 50.0001H44.6241C45.0564 50.0001 45.407 49.6496 45.407 49.2172V27.0878C45.4071 26.6553 45.0565 26.3048 44.6242 26.3048Z" fill="#10A0F2"/>
<path d="M49.6903 18.5308L25.4732 0.15918C25.1934 -0.0530275 24.8066 -0.0530275 24.527 0.15918L14.927 7.44191V4.90606H15.8143C16.2466 4.90606 16.5972 4.55558 16.5972 4.12315V0.782912C16.5972 0.350587 16.2467 0 15.8143 0H4.12317C3.69084 0 3.34025 0.350489 3.34025 0.782912V4.12325C3.34025 4.55558 3.69074 4.90616 4.12317 4.90616H5.01047V14.9648L0.30978 18.5308C0.0419082 18.7339 -0.0662951 19.0855 0.0409317 19.404C0.148158 19.7227 0.446792 19.9373 0.782925 19.9373H4.59299V37.9436C4.59299 38.376 4.94348 38.7265 5.3759 38.7265C5.80823 38.7265 6.15882 38.3761 6.15882 37.9436V19.1545C6.15882 18.7222 5.80833 18.3716 5.3759 18.3716H3.11027L25 1.76553L46.8899 18.3716H44.6242C44.1919 18.3716 43.8413 18.7221 43.8413 19.1545V22.9123C43.8413 23.3447 44.1918 23.6953 44.6242 23.6953C45.0566 23.6953 45.4071 23.3448 45.4071 22.9123V19.9374H49.2172C49.5534 19.9374 49.8521 19.7228 49.9592 19.4041C50.0664 19.0855 49.9581 18.7339 49.6903 18.5308ZM4.90608 3.34034V1.56582H15.0313V3.34034H4.90608ZM13.3612 8.6297L6.5762 13.7769V4.90606H13.3612V8.6297Z" fill="#10A0F2"/>
<path d="M41.9524 43.0679L36.1069 37.2223C35.4099 36.5253 34.3252 36.3391 33.4351 36.7648L29.5659 32.8957C31.2794 30.7593 32.3062 28.0497 32.3062 25.1043C32.3062 22.2886 31.3906 19.631 29.6581 17.4191C29.3915 17.0786 28.8994 17.0189 28.5591 17.2855C28.2187 17.5521 28.1589 18.0442 28.4255 18.3845C29.94 20.3182 30.7406 22.6419 30.7406 25.1043C30.7406 31.1192 25.8473 36.0125 19.8324 36.0125C13.8176 36.0125 8.92422 31.1192 8.92422 25.1044C8.92422 19.0897 13.8177 14.1963 19.8323 14.1963C21.8097 14.1963 23.7461 14.7307 25.4324 15.7414C25.8033 15.9638 26.284 15.8432 26.5064 15.4724C26.7287 15.1016 26.6082 14.6207 26.2373 14.3985C24.308 13.2419 22.0932 12.6305 19.8323 12.6305C12.9542 12.6305 7.3584 18.2262 7.3584 25.1044C7.3584 31.9827 12.9542 37.5783 19.8323 37.5783C23.2024 37.5783 26.264 36.2343 28.511 34.055L32.3288 37.8728C31.9135 38.7455 32.064 39.8224 32.7854 40.5438L38.6309 46.3893C39.5362 47.2948 41.0471 47.2948 41.9524 46.3893C42.8681 45.4736 42.8681 43.9835 41.9524 43.0679ZM40.8868 45.2374C40.5941 45.5795 40.0565 45.6006 39.7381 45.2822L33.8926 39.4367C33.6079 39.1519 33.5892 38.6805 33.8512 38.3744C34.1439 38.0323 34.6814 38.0112 34.9999 38.3296L40.8454 44.1751C41.13 44.4599 41.1488 44.9312 40.8868 45.2374Z" fill="#10A0F2"/>
<path d="M19.8333 15.9708C14.797 15.9708 10.6997 20.0681 10.6997 25.1044C10.6997 30.1408 14.7971 34.238 19.8333 34.238C24.8696 34.238 28.9669 30.1408 28.9669 25.1044C28.9669 20.0681 24.8697 15.9708 19.8333 15.9708ZM19.8333 32.6722C15.6604 32.6722 12.2654 29.2773 12.2654 25.1043C12.2654 20.9314 15.6605 17.5365 19.8333 17.5365C24.0062 17.5365 27.4012 20.9314 27.4012 25.1043C27.4012 29.2773 24.0063 32.6722 19.8333 32.6722Z" fill="#10A0F2"/>
<path d="M26.3851 24.7684C25.3593 22.6094 22.5424 20.9813 19.8325 20.9813C17.1226 20.9813 14.3057 22.6095 13.2798 24.7685C13.1789 24.9811 13.1789 25.2279 13.2798 25.4406C14.3057 27.5996 17.1226 29.2276 19.8325 29.2276C22.5424 29.2276 25.3593 27.5994 26.3851 25.4405C26.486 25.2278 26.486 24.981 26.3851 24.7684ZM17.1748 27.0371C16.2008 26.5757 15.3659 25.8928 14.8778 25.1043C15.366 24.316 16.2009 23.6331 17.1748 23.1716C16.7789 23.7145 16.5445 24.3824 16.5445 25.1043C16.5445 25.8263 16.779 26.4942 17.1748 27.0371ZM19.8325 26.8267C18.8828 26.8267 18.1101 26.054 18.1101 25.1043C18.1101 24.1546 18.8828 23.382 19.8325 23.382C20.7822 23.382 21.5548 24.1546 21.5548 25.1043C21.5548 26.054 20.7822 26.8267 19.8325 26.8267ZM22.4903 27.0371C22.8862 26.4942 23.1206 25.8263 23.1206 25.1043C23.1206 24.3824 22.8861 23.7146 22.4903 23.1716C23.4642 23.6331 24.2991 24.3159 24.7873 25.1043C24.2991 25.8928 23.4641 26.5756 22.4903 27.0371Z" fill="#10A0F2"/>
</g>
<defs>
<clipPath id="clip0">
<rect width="50" height="50" fill="white"/>
</clipPath>
</defs>
</svg>
