<svg width="50" height="50" viewBox="0 0 50 50" fill="none" xmlns="http://www.w3.org/2000/svg">
<path d="M43.3621 41.6667C41.1121 41.6667 40.8621 40.6667 40.8621 40.1667C44.0288 38.8333 45.9455 35.6667 45.8621 32.25C45.8621 32.0833 45.8621 31.75 45.8621 31.6667C45.8621 27.5 42.5288 24.1667 38.3621 24.1667H28.3621C27.8621 24.1667 27.5288 24.5 27.5288 25C27.5288 26.9167 28.2788 28.75 29.5288 30.0833C29.3621 30.9167 29.1955 31.6667 29.1955 32.5C29.1955 35.8333 31.1955 38.8333 34.1955 40.1667C34.1955 40.6667 33.9455 41.6667 31.6955 41.6667C29.3621 41.6667 27.5288 43.5 27.5288 45.8333V50H29.1955V45.8333C29.1955 44.4167 30.2788 43.3333 31.6955 43.3333C34.2788 43.3333 35.8621 42.0833 35.8621 40V39.5833C35.8621 39.25 35.6121 38.9167 35.2788 38.8333C32.6121 37.8333 30.8621 35.3333 30.8621 32.5C30.8621 32.0833 30.8621 31.6667 30.9455 31.3333C32.1121 32.0833 33.5288 32.5 35.0288 32.5H44.1955C44.1955 35.3333 42.4455 37.8333 39.7788 38.75C39.4455 38.8333 39.1955 39.1667 39.1955 39.5V40C39.1955 42.0833 40.7788 43.3333 43.3621 43.3333C44.7788 43.3333 45.8621 44.4167 45.8621 45.8333V50H47.5288V45.8333C47.5288 43.5 45.6955 41.6667 43.3621 41.6667ZM35.0288 30.8333C32.1121 30.8333 29.6955 28.6667 29.2788 25.8333H38.3621C41.2788 25.8333 43.6955 28 44.1121 30.8333H35.0288Z" fill="#2BBA30"/>
<path d="M49.946 22.5V8.33333C50.0293 6.5 48.5293 5 46.696 5H30.0293V3.33333C30.0293 1.5 28.5293 0 26.696 0H3.36263C1.5293 0 0.0292969 1.5 0.0292969 3.33333V21.6667C0.0292969 25.1667 1.2793 27.6667 3.7793 29.1667L4.61263 27.75C2.69596 26.5 1.69596 24.5833 1.69596 21.6667V3.33333C1.69596 2.41667 2.44596 1.66667 3.36263 1.66667H26.696C27.6126 1.66667 28.3626 2.41667 28.3626 3.33333V19.1667C28.3626 20.0833 27.6126 20.8333 26.696 20.8333H11.8626C9.2793 20.8333 7.0293 22.75 6.69596 25.3333C6.69596 25.5 6.69596 25.6667 6.69596 25.8333H8.36263C8.36263 25.75 8.36263 25.5833 8.36263 25.5C8.61263 23.75 10.1126 22.5 11.8626 22.5H26.696C28.5293 22.5 30.0293 21 30.0293 19.1667H40.0293C42.3626 19.1667 44.196 21 44.196 23.3333H45.8626C45.8626 20.0833 43.2793 17.5 40.0293 17.5H30.0293V6.66667H46.696C47.6126 6.66667 48.3626 7.41667 48.3626 8.33333V22.5C48.446 24.25 47.946 25.9167 46.8626 27.3333L48.1126 28.4167C49.446 26.75 50.1126 24.6667 49.946 22.5Z" fill="#2BBA30"/>
<path d="M20.8626 42.5C19.5293 42.5 18.446 41.5 18.3626 40.1666C22.6126 38.3333 24.5293 33.4166 22.696 29.1666C20.8626 24.9166 15.946 23 11.696 24.8333C7.44596 26.6666 5.5293 31.5833 7.36263 35.8333C8.19596 37.75 9.7793 39.3333 11.696 40.1666C11.6126 41.5 10.5293 42.5 9.19596 42.5C6.86263 42.5 5.0293 44.3333 5.0293 46.6666V50H6.69596V46.6666C6.69596 45.25 7.7793 44.1666 9.19596 44.1666C11.5293 44.1666 13.3626 42.3333 13.3626 40V39.5833C13.3626 39.25 13.1126 38.9166 12.7793 38.8333C10.446 38 8.69596 35.9166 8.36263 33.4166H10.8626C11.0293 33.4166 11.196 33.3333 11.3626 33.25L13.3626 31.9166L15.3626 33.25C15.5293 33.3333 15.696 33.4166 15.8626 33.4166H21.6126C21.2793 35.9166 19.6126 38 17.196 38.8333C16.8626 38.9166 16.6126 39.25 16.6126 39.5833V40C16.6126 42.3333 18.446 44.1666 20.7793 44.1666C22.196 44.1666 23.2793 45.25 23.2793 46.6666V50H24.946V46.6666C25.0293 44.3333 23.196 42.5 20.8626 42.5ZM16.1126 31.6666L13.8626 30.1666C13.6126 30 13.196 30 12.946 30.1666L10.6126 31.6666H8.44596C8.86263 28 12.196 25.4166 15.8626 25.9166C18.8626 26.3333 21.2793 28.6666 21.6126 31.6666H16.1126Z" fill="#2BBA30"/>
<path d="M21.6958 4.16666H4.1958V5.83332H21.6958V4.16666Z" fill="#2BBA30"/>
<path d="M9.1958 7.5H4.1958V9.16667H9.1958V7.5Z" fill="#2BBA30"/>
<path d="M23.3628 7.5H10.8628V9.16667H23.3628V7.5Z" fill="#2BBA30"/>
<path d="M5.86247 10.8333H4.1958V12.5H5.86247V10.8333Z" fill="#2BBA30"/>
<path d="M14.196 10.8333H7.5293V12.5H14.196V10.8333Z" fill="#2BBA30"/>
<path d="M23.3628 10.8333H15.8628V12.5H23.3628V10.8333Z" fill="#2BBA30"/>
<path d="M46.6955 10H35.0288V11.6667H46.6955V10Z" fill="#2BBA30"/>
<path d="M37.5286 13.3333H31.6953V15H37.5286V13.3333Z" fill="#2BBA30"/>
<path d="M46.6953 13.3333H39.1953V15H46.6953V13.3333Z" fill="#2BBA30"/>
<path d="M33.362 10H31.6953V11.6667H33.362V10Z" fill="#2BBA30"/>
</svg>
