<svg width="50" height="50" viewBox="0 0 50 50" fill="none" xmlns="http://www.w3.org/2000/svg">
<g clip-path="url(#clip0)">
<path d="M35.8338 30.834V27.5009C35.8338 27.0407 35.4607 26.6676 35.0005 26.6676C34.5403 26.6676 34.1672 27.0407 34.1672 27.5009V30.834C34.1672 31.2942 33.7941 31.6673 33.3339 31.6673H32.5006C32.0404 31.6673 31.6673 31.2942 31.6673 30.834V21.6678H35.0005C35.4607 21.6678 35.8338 21.2947 35.8338 20.8345V17.5013C35.8338 15.6605 34.3413 14.1681 32.5006 14.1681H29.0746C30.7725 12.5113 31.2978 9.99142 30.4035 7.79425C29.5088 5.59708 27.373 4.16037 25.0009 4.16037C22.6284 4.16037 20.4926 5.59708 19.5983 7.79425C18.7036 9.99142 19.2288 12.5113 20.9268 14.1681H19.1678C18.7076 14.1681 18.3345 14.5412 18.3345 15.0014C18.3345 15.4616 18.7076 15.8347 19.1678 15.8347H21.6677V17.5013C21.6677 17.7222 21.7556 17.9342 21.9118 18.0904L24.1676 20.3462V23.3344C24.1676 23.7945 24.5407 24.1677 25.0009 24.1677C25.4611 24.1677 25.8342 23.7945 25.8342 23.3344V20.3462L28.09 18.0904C28.2462 17.9342 28.3337 17.7222 28.3341 17.5013V15.8347H32.5006C33.421 15.8347 34.1672 16.5809 34.1672 17.5013V20.0012H30.834C30.3738 20.0012 30.0007 20.3743 30.0007 20.8345V44.1668H25.8342V34.1672C25.8342 33.7071 25.4611 33.3339 25.0009 33.3339C24.5407 33.3339 24.1676 33.7071 24.1676 34.1672V44.1668H20.0011V30.834H26.6675C27.1277 30.834 27.5008 30.4609 27.5008 30.0007C27.5008 29.5406 27.1277 29.1675 26.6675 29.1675H20.0011V20.8345C20.0011 20.3743 19.628 20.0012 19.1678 20.0012C18.7076 20.0012 18.3345 20.3743 18.3345 20.8345V30.834C18.3345 31.2942 17.9614 31.6673 17.5012 31.6673H16.6679C16.2077 31.6673 15.8346 31.2942 15.8346 30.834V22.5011C15.8346 22.0409 15.4615 21.6678 15.0013 21.6678C14.5411 21.6678 14.168 22.0409 14.168 22.5011V29.1675H10.8348C8.53471 29.1703 6.67078 31.0342 6.66834 33.3339V34.5749L5.04813 35.7415L2.65484 36.1272C2.29963 36.1842 2.02132 36.4629 1.96435 36.8181L1.57822 39.2114L0.161859 41.177C-0.0480935 41.468 -0.0480935 41.861 0.161859 42.1519L1.57822 44.1176L1.96435 46.5109C2.02132 46.8661 2.29963 47.1448 2.65484 47.2018L5.04813 47.5875L7.01419 49.0043C7.30511 49.2142 7.69775 49.2142 7.98908 49.0043L9.95474 47.5875L12.348 47.2018C12.7032 47.1448 12.982 46.8661 13.0389 46.5109L13.4246 44.1176L14.841 42.1519C15.051 41.861 15.051 41.468 14.841 41.177L13.4246 39.2114L13.0389 36.8181C12.982 36.4629 12.7032 36.1842 12.348 36.1272L9.95474 35.7415L8.33493 34.5749V33.3339C8.33493 31.9534 9.45387 30.834 10.8348 30.834H14.168C14.168 32.2146 15.287 33.3339 16.6679 33.3339H17.5012C17.7856 33.3311 18.0676 33.2794 18.3345 33.1805V47.5C18.3345 48.8806 19.4534 49.9999 20.8344 49.9999H23.3343C23.9511 49.9979 24.5452 49.7659 25.0009 49.3501C25.4562 49.7659 26.0503 49.9979 26.6675 49.9999H29.1674C30.5479 49.9999 31.6673 48.8806 31.6673 47.5V33.1805C31.9338 33.2794 32.2158 33.3311 32.5006 33.3339H33.3339C34.7144 33.3339 35.8338 32.2146 35.8338 30.834ZM20.8344 10.0016C20.8344 7.70067 22.6996 5.8351 25.0009 5.8351C27.3018 5.8351 29.1674 7.70067 29.1674 10.0016C29.1674 12.3029 27.3018 14.1681 25.0009 14.1681C22.7008 14.1652 20.8368 12.3017 20.8344 10.0016ZM26.6675 17.1562L25.0009 18.8228L23.3343 17.1562V15.8347H26.6675V17.1562ZM9.49455 37.3572L11.4887 37.6799L11.8114 39.6736C11.8317 39.8022 11.8821 39.9238 11.9586 40.0288L13.1402 41.6669L11.9586 43.3054C11.8821 43.4104 11.8317 43.5321 11.8114 43.6602L11.4887 45.6544L9.49455 45.9766C9.36639 45.9974 9.24473 46.0478 9.13975 46.1243L7.50164 47.3059L5.86312 46.1243C5.75814 46.0478 5.63648 45.9974 5.50831 45.9766L3.51417 45.6544L3.19152 43.6602C3.17117 43.5321 3.12072 43.4104 3.04422 43.3054L1.86263 41.6669L3.04422 40.0288C3.12072 39.9238 3.17117 39.8022 3.19152 39.6736L3.51417 37.6799L5.50831 37.3572C5.63648 37.3369 5.75814 37.2864 5.86312 37.2095L7.50164 36.0279L9.13975 37.2095C9.24473 37.2864 9.36639 37.3369 9.49455 37.3572ZM23.3343 48.3333H20.8344C20.3742 48.3333 20.0011 47.9602 20.0011 47.5V45.8334H24.1676V47.5C24.1676 47.9602 23.7945 48.3333 23.3343 48.3333ZM30.0007 47.5C30.0007 47.9602 29.6276 48.3333 29.1674 48.3333H26.6675C26.2073 48.3333 25.8342 47.9602 25.8342 47.5V45.8334H30.0007V47.5Z" fill="#F19BE0"/>
<path d="M41.6674 5.83511C42.1276 5.83511 42.5007 6.20823 42.5007 6.66841C42.5007 7.1286 42.8738 7.50171 43.334 7.50171C43.7941 7.50171 44.1673 7.1286 44.1673 6.66841C44.1628 5.61295 43.4959 4.67387 42.5007 4.32191V3.33522C42.5007 2.87503 42.1276 2.50192 41.6674 2.50192C41.2072 2.50192 40.8341 2.87503 40.8341 3.33522V4.32191C39.6867 4.72595 38.9982 5.89859 39.2045 7.09686C39.4104 8.29554 40.4512 9.17075 41.6674 9.1683C42.1276 9.1683 42.5007 9.54142 42.5007 10.0016C42.5007 10.4618 42.1276 10.8349 41.6674 10.8349C41.2072 10.8349 40.8341 10.4618 40.8341 10.0016C40.8341 9.54142 40.461 9.1683 40.0008 9.1683C39.5406 9.1683 39.1675 9.54142 39.1675 10.0016C39.1715 11.0575 39.8388 11.9966 40.8341 12.3481V13.3348C40.8341 13.795 41.2072 14.1681 41.6674 14.1681C42.1276 14.1681 42.5007 13.795 42.5007 13.3348V12.3481C43.6477 11.9441 44.3361 10.7718 44.1298 9.57315C43.9239 8.37447 42.8835 7.49967 41.6674 7.50171C41.2072 7.50171 40.8341 7.1286 40.8341 6.66841C40.8341 6.20823 41.2072 5.83511 41.6674 5.83511Z" fill="#F19BE0"/>
<path d="M40.8341 16.6257V20.8345C40.8341 22.2151 39.7148 23.3344 38.3342 23.3344H35.0011C34.5409 23.3344 34.1678 23.7075 34.1678 24.1677C34.1678 24.6279 34.5409 25.001 35.0011 25.001H38.3342C40.634 24.9982 42.4979 23.1346 42.5007 20.8345V16.6257C46.7559 16.1928 49.9947 12.6122 50.0004 8.33504C50.0004 7.87485 49.6273 7.50174 49.1671 7.50174C48.7069 7.50174 48.3338 7.87485 48.3338 8.33504C48.344 11.562 46.0488 14.3362 42.8767 14.9302C39.7046 15.5243 36.561 13.7686 35.4031 10.7564C34.2451 7.74465 35.4031 4.33496 38.1556 2.65128C40.9086 0.967185 44.4713 1.48922 46.6253 3.89187C46.8227 4.11891 47.1274 4.22185 47.422 4.16122C47.7166 4.1006 47.9554 3.88576 48.0474 3.59932C48.1393 3.31287 48.0698 2.99916 47.8655 2.77863C45.3807 2.19259e-05 41.3529 -0.790554 38.0022 0.842678C34.6515 2.47591 32.7933 6.13542 33.4512 9.8047C34.1096 13.4736 37.1246 16.2591 40.8341 16.6257Z" fill="#F19BE0"/>
<path d="M0.835251 19.2155H3.33515V22.5011C3.33759 24.8012 5.20152 26.6647 7.50164 26.6676H10.8348C11.295 26.6676 11.6681 26.2945 11.6681 25.8343C11.6681 25.3741 11.295 25.001 10.8348 25.001H7.50164C6.12067 25.001 5.00174 23.8817 5.00174 22.5011V19.2155H15.8346C16.2948 19.2155 16.6679 18.8424 16.6679 18.3822V5.04943C16.6679 4.58925 16.2948 4.21613 15.8346 4.21613H12.6931C13.622 3.23473 13.6029 1.69264 12.6495 0.734427C11.6604 -0.209544 10.1041 -0.209544 9.11493 0.734427C8.81424 1.0636 8.55262 1.42572 8.33494 1.8147C8.11766 1.4245 7.85644 1.06115 7.55575 0.731172C6.56621 -0.212799 5.00947 -0.212799 4.01993 0.731172C3.06457 1.68979 3.04544 3.23432 3.9768 4.21613H0.835251C0.375066 4.21613 0.00195312 4.58925 0.00195312 5.04943V10.8349C0.00195312 11.2951 0.375066 11.6682 0.835251 11.6682C1.29544 11.6682 1.66855 11.2951 1.66855 10.8349V5.88273H4.9342L2.68413 8.69512C2.39646 9.05439 2.45465 9.57887 2.81433 9.86653C3.17361 10.1542 3.69809 10.096 3.98575 9.73674L5.83504 7.42523V17.5489H4.4024C4.32713 17.5217 4.24819 17.5058 4.16844 17.5013C4.08829 17.5058 4.00935 17.5217 3.93408 17.5489H1.66855V15.8347C1.66855 15.3745 1.29544 15.0014 0.835251 15.0014C0.375066 15.0014 0.00195312 15.3745 0.00195312 15.8347V18.3822C0.00195312 18.8424 0.375066 19.2155 0.835251 19.2155ZM15.0013 17.5489H10.8348V7.42523L12.6837 9.73674C12.9714 10.096 13.4959 10.1542 13.8555 9.86653C14.2148 9.57887 14.273 9.05439 13.9853 8.69512L11.7353 5.88273H15.0013V17.5489ZM10.882 1.66863C11.2193 1.66863 11.5229 1.87167 11.6519 2.18334C11.7808 2.49461 11.7096 2.85267 11.4712 3.0911C10.8153 3.64853 10.0312 4.03507 9.1898 4.21613H9.16823C9.34482 3.36575 9.73299 2.57354 10.2973 1.91276C10.4515 1.75652 10.6623 1.66863 10.882 1.66863ZM5.19827 1.91276C5.52377 1.58766 6.0511 1.58766 6.3766 1.91276C6.93892 2.57395 7.32586 3.36615 7.50164 4.21613H7.47641C6.63457 4.03507 5.85091 3.64853 5.19501 3.0911C4.87032 2.76478 4.87195 2.23746 5.19827 1.91276ZM7.50164 5.88273H9.16823V17.5489H7.50164V5.88273Z" fill="#F19BE0"/>
<path d="M47.5 35.0006C47.0398 35.0006 46.6667 35.3737 46.6667 35.8339C46.6667 36.294 47.0398 36.6672 47.5 36.6672C47.9602 36.6672 48.3333 37.0403 48.3333 37.5005V45.0001C48.3333 45.4603 47.9602 45.8334 47.5 45.8334H37.5004C37.0402 45.8334 36.6671 45.4603 36.6671 45.0001V37.5005C36.6671 37.0403 37.0402 36.6672 37.5004 36.6672H38.3337C38.7939 36.6672 39.167 36.294 39.167 35.8339V32.8457L42.7443 36.423C43.071 36.7388 43.591 36.7343 43.9125 36.4129C44.2339 36.0914 44.2384 35.5718 43.9227 35.2447L38.9229 30.2449C38.6844 30.0069 38.326 29.9357 38.0147 30.0642C37.7034 30.1932 37.5004 30.4972 37.5004 30.8341V35.0006C36.1194 35.0006 35.0005 36.1199 35.0005 37.5005V45.0001C35.0005 46.3807 36.1194 47.5 37.5004 47.5H47.5C48.8805 47.5 49.9999 46.3807 49.9999 45.0001V37.5005C49.9999 36.1199 48.8805 35.0006 47.5 35.0006Z" fill="#F19BE0"/>
<path d="M39.1678 40.8336H40.8344C41.2945 40.8336 41.6677 40.4605 41.6677 40.0004C41.6677 39.5402 41.2945 39.1671 40.8344 39.1671H39.1678C38.7076 39.1671 38.3345 39.5402 38.3345 40.0004C38.3345 40.4605 38.7076 40.8336 39.1678 40.8336Z" fill="#F19BE0"/>
<path d="M46.6672 40.0004C46.6672 39.5402 46.2941 39.1671 45.8339 39.1671H44.1673C43.7071 39.1671 43.334 39.5402 43.334 40.0004C43.334 40.4605 43.7071 40.8336 44.1673 40.8336H45.8339C46.2941 40.8336 46.6672 40.4605 46.6672 40.0004Z" fill="#F19BE0"/>
<path d="M39.1678 44.1668H44.1675C44.6277 44.1668 45.0008 43.7937 45.0008 43.3335C45.0008 42.8734 44.6277 42.5002 44.1675 42.5002H39.1678C38.7076 42.5002 38.3345 42.8734 38.3345 43.3335C38.3345 43.7937 38.7076 44.1668 39.1678 44.1668Z" fill="#F19BE0"/>
<path d="M5.24608 43.9227C5.57118 44.2482 6.09891 44.2482 6.42442 43.9227L9.75761 40.5895C10.0734 40.2628 10.0689 39.7428 9.74744 39.4214C9.426 39.0999 8.90601 39.0955 8.57928 39.4112L5.24608 42.7444C4.92058 43.0699 4.92058 43.5972 5.24608 43.9227Z" fill="#F19BE0"/>
<path d="M6.66862 40.0004C6.66862 40.4606 6.29549 40.8337 5.83529 40.8337C5.37508 40.8337 5.00195 40.4606 5.00195 40.0004C5.00195 39.5402 5.37508 39.1671 5.83529 39.1671C6.29549 39.1671 6.66862 39.5402 6.66862 40.0004Z" fill="#F19BE0"/>
<path d="M10.0016 43.3336C10.0016 43.7938 9.6285 44.1669 9.16829 44.1669C8.70809 44.1669 8.33496 43.7938 8.33496 43.3336C8.33496 42.8734 8.70809 42.5002 9.16829 42.5002C9.6285 42.5002 10.0016 42.8734 10.0016 43.3336Z" fill="#F19BE0"/>
</g>
<defs>
<clipPath id="clip0">
<rect width="50" height="50" fill="white"/>
</clipPath>
</defs>
</svg>
