<svg width="15" height="15" viewBox="0 0 15 15" fill="none" xmlns="http://www.w3.org/2000/svg">
<g clip-path="url(#clip0)">
<path d="M12.9788 0H2.02153C0.905225 0 0.000244141 0.904943 0.000244141 2.02128V12.9786C0.000244141 14.095 0.905188 14.9999 2.02153 14.9999H7.42561L7.43482 9.63976H6.04225C5.86128 9.63976 5.71439 9.49343 5.7137 9.31246L5.70702 7.58465C5.70632 7.40269 5.85365 7.25481 6.03561 7.25481H7.42565V5.58532C7.42565 3.64788 8.60892 2.59293 10.3372 2.59293H11.7555C11.9369 2.59293 12.084 2.74004 12.084 2.92153V4.37842C12.084 4.55983 11.937 4.7069 11.7556 4.70701L10.8853 4.70742C9.94538 4.70742 9.76338 5.15405 9.76338 5.80952V7.25485H11.8287C12.0255 7.25485 12.1782 7.42669 12.155 7.62212L11.9502 9.34992C11.9306 9.51526 11.7904 9.63984 11.6239 9.63984H9.77259L9.76338 15H12.9789C14.0952 15 15.0001 14.0951 15.0001 12.9788V2.02128C15.0001 0.904943 14.0952 0 12.9788 0Z" fill="white"/>
</g>
<defs>
<clipPath id="clip0">
<rect width="15" height="15" fill="white"/>
</clipPath>
</defs>
</svg>
