<svg width="15" height="15" viewBox="0 0 15 15" fill="none" xmlns="http://www.w3.org/2000/svg">
<g clip-path="url(#clip0)">
<path d="M12.9787 0H2.0214C0.905103 0 0.00012207 0.904943 0.00012207 2.02128V12.9786C0.00012207 14.095 0.905066 14.9999 2.0214 14.9999H7.42549L7.4347 9.63976H6.04213C5.86116 9.63976 5.71427 9.49343 5.71358 9.31246L5.7069 7.58465C5.7062 7.40269 5.85353 7.25481 6.03549 7.25481H7.42553V5.58532C7.42553 3.64788 8.60879 2.59293 10.3371 2.59293H11.7553C11.9368 2.59293 12.0839 2.74004 12.0839 2.92153V4.37842C12.0839 4.55983 11.9369 4.7069 11.7555 4.70701L10.8852 4.70742C9.94526 4.70742 9.76326 5.15405 9.76326 5.80952V7.25485H11.8286C12.0254 7.25485 12.178 7.42669 12.1549 7.62212L11.9501 9.34992C11.9305 9.51526 11.7903 9.63984 11.6238 9.63984H9.77247L9.76326 15H12.9788C14.0951 15 15 14.0951 15 12.9788V2.02128C15 0.904943 14.095 0 12.9787 0Z" fill="#464646"/>
</g>
<defs>
<clipPath id="clip0">
<rect width="15" height="15" fill="white"/>
</clipPath>
</defs>
</svg>
