<svg width="15" height="15" viewBox="0 0 15 15" fill="none" xmlns="http://www.w3.org/2000/svg">
<g clip-path="url(#clip0)">
<path d="M0.937564 1.02063C-0.241186 2.24501 6.3505e-05 3.54563 6.3505e-05 7.49688C6.3505e-05 10.7781 -0.572437 14.0675 2.42381 14.8419C3.35944 15.0825 11.6494 15.0825 12.5838 14.8406C13.8313 14.5188 14.8463 13.5069 14.9851 11.7425C15.0044 11.4963 15.0044 3.50188 14.9844 3.25063C14.8369 1.37126 13.6801 0.288131 12.1557 0.0687561C11.8063 0.0181311 11.7363 0.00313112 9.94381 6.11693e-06C3.58569 0.00313112 2.19194 -0.279994 0.937564 1.02063Z" fill="#464646"/>
<path d="M7.49863 1.96187C5.22926 1.96187 3.07426 1.75999 2.25113 3.87249C1.91113 4.74499 1.96051 5.87812 1.96051 7.50062C1.96051 8.92437 1.91488 10.2625 2.25113 11.1281C3.07238 13.2419 5.24488 13.0394 7.49738 13.0394C9.67051 13.0394 11.9111 13.2656 12.7443 11.1281C13.0849 10.2469 13.0349 9.13062 13.0349 7.50062C13.0349 5.33687 13.1543 3.93999 12.1049 2.89124C11.0424 1.82874 9.60551 1.96187 7.49613 1.96187H7.49863ZM7.00238 2.95999C11.7361 2.95249 12.3386 2.42624 12.0061 9.73687C11.888 12.3225 9.91926 12.0387 7.49926 12.0387C3.08676 12.0387 2.95988 11.9125 2.95988 7.49812C2.95988 3.03249 3.30988 2.96249 7.00238 2.95874V2.95999ZM10.4549 3.87937C10.088 3.87937 9.79051 4.17687 9.79051 4.54374C9.79051 4.91062 10.088 5.20812 10.4549 5.20812C10.8218 5.20812 11.1193 4.91062 11.1193 4.54374C11.1193 4.17687 10.8218 3.87937 10.4549 3.87937ZM7.49863 4.65624C5.92801 4.65624 4.65488 5.92999 4.65488 7.50062C4.65488 9.07124 5.92801 10.3444 7.49863 10.3444C9.06926 10.3444 10.3418 9.07124 10.3418 7.50062C10.3418 5.92999 9.06926 4.65624 7.49863 4.65624ZM7.49863 5.65437C9.93926 5.65437 9.94238 9.34687 7.49863 9.34687C5.05863 9.34687 5.05488 5.65437 7.49863 5.65437Z" fill="white"/>
</g>
<defs>
<clipPath id="clip0">
<rect width="15" height="15" fill="white"/>
</clipPath>
</defs>
</svg>
