<svg width="15" height="15" viewBox="0 0 15 15" fill="none" xmlns="http://www.w3.org/2000/svg">
<g clip-path="url(#clip0)">
<path d="M0.937442 1.02062C-0.241309 2.245 -5.85653e-05 3.54562 -5.85653e-05 7.49688C-5.85653e-05 10.7781 -0.572559 14.0675 2.42369 14.8419C3.35932 15.0825 11.6493 15.0825 12.5837 14.8406C13.8312 14.5188 14.8462 13.5069 14.9849 11.7425C15.0043 11.4963 15.0043 3.50187 14.9843 3.25062C14.8368 1.37125 13.6799 0.288124 12.1556 0.0687485C11.8062 0.0181235 11.7362 0.00312349 9.94369 -1.51247e-06C3.58557 0.00312349 2.19182 -0.280002 0.937442 1.02062Z" fill="#464646"/>
<path d="M7.49876 1.96186C5.22938 1.96186 3.07438 1.75998 2.25126 3.87248C1.91126 4.74498 1.96063 5.87811 1.96063 7.50061C1.96063 8.92436 1.91501 10.2625 2.25126 11.1281C3.07251 13.2419 5.24501 13.0394 7.49751 13.0394C9.67063 13.0394 11.9113 13.2656 12.7444 11.1281C13.085 10.2469 13.035 9.13061 13.035 7.50061C13.035 5.33686 13.1544 3.93998 12.105 2.89123C11.0425 1.82873 9.60563 1.96186 7.49626 1.96186H7.49876ZM7.00251 2.95998C11.7363 2.95248 12.3388 2.42623 12.0063 9.73686C11.8881 12.3225 9.91938 12.0387 7.49938 12.0387C3.08688 12.0387 2.96001 11.9125 2.96001 7.49811C2.96001 3.03248 3.31001 2.96248 7.00251 2.95873V2.95998ZM10.455 3.87936C10.0881 3.87936 9.79063 4.17686 9.79063 4.54373C9.79063 4.91061 10.0881 5.20811 10.455 5.20811C10.8219 5.20811 11.1194 4.91061 11.1194 4.54373C11.1194 4.17686 10.8219 3.87936 10.455 3.87936ZM7.49876 4.65623C5.92813 4.65623 4.65501 5.92998 4.65501 7.50061C4.65501 9.07123 5.92813 10.3444 7.49876 10.3444C9.06938 10.3444 10.3419 9.07123 10.3419 7.50061C10.3419 5.92998 9.06938 4.65623 7.49876 4.65623ZM7.49876 5.65436C9.93938 5.65436 9.94251 9.34686 7.49876 9.34686C5.05876 9.34686 5.05501 5.65436 7.49876 5.65436Z" fill="white"/>
</g>
<defs>
<clipPath id="clip0">
<rect width="15" height="15" fill="white"/>
</clipPath>
</defs>
</svg>
