<svg width="132" height="98" viewBox="0 0 132 98" fill="none" xmlns="http://www.w3.org/2000/svg">
<path d="M1.816 91.632V93.312H3.48V91.632H4.672V96H3.48V94.2H1.816V96H0.624V91.632H1.816ZM8.92087 91.552C9.52354 91.552 10.0009 91.7253 10.3529 92.072C10.7049 92.4133 10.8809 92.9013 10.8809 93.536V94.112H8.06487C8.07554 94.448 8.17421 94.712 8.36087 94.904C8.55287 95.096 8.81687 95.192 9.15287 95.192C9.43554 95.192 9.69154 95.1653 9.92088 95.112C10.1502 95.0533 10.3875 94.9653 10.6329 94.848V95.768C10.4195 95.8747 10.1929 95.952 9.95287 96C9.71821 96.0533 9.43287 96.08 9.09687 96.08C8.65954 96.08 8.27287 96 7.93687 95.84C7.60087 95.6747 7.33687 95.4267 7.14487 95.096C6.95287 94.7653 6.85687 94.3493 6.85687 93.848C6.85687 93.336 6.94221 92.912 7.11287 92.576C7.28887 92.2347 7.53154 91.9787 7.84087 91.808C8.15021 91.6373 8.51021 91.552 8.92087 91.552ZM8.92887 92.4C8.69954 92.4 8.50754 92.4747 8.35287 92.624C8.20354 92.7733 8.11554 93.0053 8.08887 93.32H9.76087C9.75554 93.0533 9.68621 92.8347 9.55288 92.664C9.41954 92.488 9.21154 92.4 8.92887 92.4ZM16.9754 91.632V95.128H17.6154V97.568H16.5434V96H13.6074V97.568H12.5354V95.128H12.9034C13.0954 94.8347 13.2581 94.5013 13.3914 94.128C13.5248 93.7493 13.6314 93.3467 13.7114 92.92C13.7914 92.4933 13.8501 92.064 13.8874 91.632H16.9754ZM15.7834 92.528H14.8874C14.8234 93.0133 14.7354 93.4747 14.6234 93.912C14.5114 94.344 14.3541 94.7493 14.1514 95.128H15.7834V92.528ZM23.4319 92.776C23.4319 93.0107 23.3573 93.2107 23.2079 93.376C23.0639 93.5413 22.8479 93.648 22.5599 93.696V93.728C22.8639 93.7653 23.1066 93.8693 23.2879 94.04C23.4746 94.2107 23.5679 94.4293 23.5679 94.696C23.5679 94.9467 23.5013 95.1707 23.3679 95.368C23.2399 95.5653 23.0346 95.72 22.7519 95.832C22.4693 95.944 22.0986 96 21.6399 96H19.5599V91.632H21.6399C21.9813 91.632 22.2853 91.6693 22.5519 91.744C22.8239 91.8133 23.0373 91.9307 23.1919 92.096C23.3519 92.2613 23.4319 92.488 23.4319 92.776ZM22.2239 92.872C22.2239 92.6053 22.0133 92.472 21.5919 92.472H20.7519V93.336H21.4559C21.7066 93.336 21.8959 93.3013 22.0239 93.232C22.1573 93.1573 22.2239 93.0373 22.2239 92.872ZM22.3359 94.632C22.3359 94.4613 22.2693 94.3387 22.1359 94.264C22.0026 94.184 21.8026 94.144 21.5359 94.144H20.7519V95.176H21.5599C21.7839 95.176 21.9679 95.136 22.1119 95.056C22.2613 94.9707 22.3359 94.8293 22.3359 94.632ZM26.9432 91.632V93.36C26.9432 93.4507 26.9379 93.5627 26.9272 93.696C26.9219 93.8293 26.9139 93.9653 26.9032 94.104C26.8979 94.2427 26.8899 94.3653 26.8792 94.472C26.8685 94.5787 26.8605 94.6533 26.8552 94.696L28.8712 91.632H30.3032V96H29.1512V94.256C29.1512 94.112 29.1565 93.9547 29.1672 93.784C29.1779 93.608 29.1885 93.4453 29.1992 93.296C29.2152 93.1413 29.2259 93.024 29.2312 92.944L27.2232 96H25.7912V91.632H26.9432ZM38.957 91.632L37.349 93.728L39.109 96H37.837L36.173 93.784V96H35.061V93.784L33.397 96H32.125L33.885 93.728L32.277 91.632H33.509L35.061 93.752V91.632H36.173V93.752L37.725 91.632H38.957ZM42.0854 91.632V93.36C42.0854 93.4507 42.08 93.5627 42.0694 93.696C42.064 93.8293 42.056 93.9653 42.0454 94.104C42.04 94.2427 42.032 94.3653 42.0214 94.472C42.0107 94.5787 42.0027 94.6533 41.9974 94.696L44.0134 91.632H45.4454V96H44.2934V94.256C44.2934 94.112 44.2987 93.9547 44.3094 93.784C44.32 93.608 44.3307 93.4453 44.3414 93.296C44.3574 93.1413 44.368 93.024 44.3734 92.944L42.3654 96H40.9334V91.632H42.0854ZM53.3952 91.632V96H52.2832V93.856C52.2832 93.6427 52.2859 93.4347 52.2912 93.232C52.3019 93.0293 52.3152 92.8427 52.3312 92.672H52.3072L51.0992 96H50.2032L48.9792 92.664H48.9472C48.9685 92.84 48.9819 93.0293 48.9872 93.232C48.9979 93.4293 49.0032 93.648 49.0032 93.888V96H47.8912V91.632H49.5792L50.6672 94.592L51.7712 91.632H53.3952ZM59.8092 93.808C59.8092 94.5333 59.6172 95.0933 59.2332 95.488C58.8545 95.8827 58.3372 96.08 57.6812 96.08C57.2759 96.08 56.9132 95.992 56.5932 95.816C56.2785 95.64 56.0305 95.384 55.8492 95.048C55.6679 94.7067 55.5772 94.2933 55.5772 93.808C55.5772 93.0827 55.7665 92.5253 56.1452 92.136C56.5239 91.7467 57.0439 91.552 57.7052 91.552C58.1159 91.552 58.4785 91.64 58.7932 91.816C59.1079 91.992 59.3559 92.248 59.5372 92.584C59.7185 92.9147 59.8092 93.3227 59.8092 93.808ZM56.7932 93.808C56.7932 94.24 56.8625 94.568 57.0012 94.792C57.1452 95.0107 57.3772 95.12 57.6972 95.12C58.0119 95.12 58.2385 95.0107 58.3772 94.792C58.5212 94.568 58.5932 94.24 58.5932 93.808C58.5932 93.376 58.5212 93.0533 58.3772 92.84C58.2385 92.6213 58.0092 92.512 57.6892 92.512C57.3745 92.512 57.1452 92.6213 57.0012 92.84C56.8625 93.0533 56.7932 93.376 56.7932 93.808ZM63.7703 96.08C63.1196 96.08 62.6156 95.9013 62.2583 95.544C61.9063 95.1813 61.7303 94.6133 61.7303 93.84C61.7303 93.3067 61.821 92.872 62.0023 92.536C62.1836 92.2 62.4343 91.952 62.7543 91.792C63.0796 91.632 63.453 91.552 63.8743 91.552C64.173 91.552 64.4316 91.5813 64.6503 91.64C64.8743 91.6987 65.069 91.768 65.2343 91.848L64.8823 92.768C64.6956 92.6933 64.5196 92.632 64.3543 92.584C64.1943 92.536 64.0343 92.512 63.8743 92.512C63.2556 92.512 62.9463 92.952 62.9463 93.832C62.9463 94.2693 63.0263 94.592 63.1863 94.8C63.3516 95.008 63.581 95.112 63.8743 95.112C64.125 95.112 64.3463 95.08 64.5383 95.016C64.7303 94.9467 64.917 94.8533 65.0983 94.736V95.752C64.917 95.8693 64.725 95.952 64.5223 96C64.325 96.0533 64.0743 96.08 63.7703 96.08ZM70.9197 92.528H69.4877V96H68.2957V92.528H66.8637V91.632H70.9197V92.528ZM74.1176 93.32H74.9576C75.6296 93.32 76.1256 93.4267 76.4456 93.64C76.7709 93.8533 76.9336 94.176 76.9336 94.608C76.9336 95.0293 76.7842 95.368 76.4856 95.624C76.1869 95.8747 75.6936 96 75.0056 96H72.9256V91.632H74.1176V93.32ZM75.7416 94.624C75.7416 94.304 75.4722 94.144 74.9336 94.144H74.1176V95.176H74.9496C75.1842 95.176 75.3736 95.1333 75.5176 95.048C75.6669 94.9627 75.7416 94.8213 75.7416 94.624ZM87.4829 96H86.0989L84.7709 93.84L83.4429 96H82.1469L84.0429 93.056L82.2669 90.288H83.6029L84.8349 92.344L86.0429 90.288H87.3469L85.5549 93.12L87.4829 96ZM91.0988 91.544C91.6855 91.544 92.1335 91.672 92.4428 91.928C92.7575 92.1787 92.9148 92.5653 92.9148 93.088V96H92.0828L91.8508 95.408H91.8188C91.6321 95.6427 91.4348 95.8133 91.2268 95.92C91.0188 96.0267 90.7335 96.08 90.3708 96.08C89.9815 96.08 89.6588 95.968 89.4028 95.744C89.1468 95.5147 89.0188 95.1653 89.0188 94.696C89.0188 94.232 89.1815 93.8907 89.5068 93.672C89.8321 93.448 90.3201 93.3253 90.9708 93.304L91.7308 93.28V93.088C91.7308 92.8587 91.6695 92.6907 91.5468 92.584C91.4295 92.4773 91.2641 92.424 91.0508 92.424C90.8375 92.424 90.6295 92.456 90.4268 92.52C90.2241 92.5787 90.0215 92.6533 89.8188 92.744L89.4268 91.936C89.6615 91.8133 89.9201 91.7173 90.2028 91.648C90.4908 91.5787 90.7895 91.544 91.0988 91.544ZM91.7308 93.976L91.2668 93.992C90.8828 94.0027 90.6161 94.072 90.4668 94.2C90.3175 94.328 90.2428 94.496 90.2428 94.704C90.2428 94.8853 90.2961 95.016 90.4028 95.096C90.5095 95.1707 90.6481 95.208 90.8188 95.208C91.0748 95.208 91.2908 95.1333 91.4668 94.984C91.6428 94.8293 91.7308 94.6133 91.7308 94.336V93.976ZM97.7669 91.552C98.2576 91.552 98.6549 91.744 98.9589 92.128C99.2629 92.5067 99.4149 93.0667 99.4149 93.808C99.4149 94.5493 99.2576 95.1147 98.9429 95.504C98.6283 95.888 98.2256 96.08 97.7349 96.08C97.4203 96.08 97.1696 96.024 96.9829 95.912C96.7963 95.7947 96.6443 95.664 96.5269 95.52H96.4629C96.5056 95.744 96.5269 95.9573 96.5269 96.16V97.92H95.3349V91.632H96.3029L96.4709 92.2H96.5269C96.6443 92.024 96.8016 91.872 96.9989 91.744C97.1963 91.616 97.4523 91.552 97.7669 91.552ZM97.3829 92.504C97.0736 92.504 96.8549 92.6 96.7269 92.792C96.6043 92.984 96.5376 93.2773 96.5269 93.672V93.8C96.5269 94.2213 96.5883 94.5467 96.7109 94.776C96.8389 95 97.0683 95.112 97.3989 95.112C97.6709 95.112 97.8709 95 97.9989 94.776C98.1323 94.5467 98.1989 94.2187 98.1989 93.792C98.1989 92.9333 97.9269 92.504 97.3829 92.504ZM102.789 93.32H103.629C104.301 93.32 104.797 93.4267 105.117 93.64C105.443 93.8533 105.605 94.176 105.605 94.608C105.605 95.0293 105.456 95.368 105.157 95.624C104.859 95.8747 104.365 96 103.677 96H101.597V91.632H102.789V93.32ZM104.413 94.624C104.413 94.304 104.144 94.144 103.605 94.144H102.789V95.176H103.621C103.856 95.176 104.045 95.1333 104.189 95.048C104.339 94.9627 104.413 94.8213 104.413 94.624ZM110.576 91.632H111.888L110.16 93.728L112.04 96H110.688L108.904 93.784V96H107.712V91.632H108.904V93.752L110.576 91.632ZM117.676 93.808C117.676 94.5333 117.484 95.0933 117.1 95.488C116.722 95.8827 116.204 96.08 115.548 96.08C115.143 96.08 114.78 95.992 114.46 95.816C114.146 95.64 113.898 95.384 113.716 95.048C113.535 94.7067 113.444 94.2933 113.444 93.808C113.444 93.0827 113.634 92.5253 114.012 92.136C114.391 91.7467 114.911 91.552 115.572 91.552C115.983 91.552 116.346 91.64 116.66 91.816C116.975 91.992 117.223 92.248 117.404 92.584C117.586 92.9147 117.676 93.3227 117.676 93.808ZM114.66 93.808C114.66 94.24 114.73 94.568 114.868 94.792C115.012 95.0107 115.244 95.12 115.564 95.12C115.879 95.12 116.106 95.0107 116.244 94.792C116.388 94.568 116.46 94.24 116.46 93.808C116.46 93.376 116.388 93.0533 116.244 92.84C116.106 92.6213 115.876 92.512 115.556 92.512C115.242 92.512 115.012 92.6213 114.868 92.84C114.73 93.0533 114.66 93.376 114.66 93.808ZM123.734 92.776C123.734 93.0107 123.659 93.2107 123.51 93.376C123.366 93.5413 123.15 93.648 122.862 93.696V93.728C123.166 93.7653 123.408 93.8693 123.59 94.04C123.776 94.2107 123.87 94.4293 123.87 94.696C123.87 94.9467 123.803 95.1707 123.67 95.368C123.542 95.5653 123.336 95.72 123.054 95.832C122.771 95.944 122.4 96 121.942 96H119.862V91.632H121.942C122.283 91.632 122.587 91.6693 122.854 91.744C123.126 91.8133 123.339 91.9307 123.494 92.096C123.654 92.2613 123.734 92.488 123.734 92.776ZM122.526 92.872C122.526 92.6053 122.315 92.472 121.894 92.472H121.054V93.336H121.758C122.008 93.336 122.198 93.3013 122.326 93.232C122.459 93.1573 122.526 93.0373 122.526 92.872ZM122.638 94.632C122.638 94.4613 122.571 94.3387 122.438 94.264C122.304 94.184 122.104 94.144 121.838 94.144H121.054V95.176H121.862C122.086 95.176 122.27 95.136 122.414 95.056C122.563 94.9707 122.638 94.8293 122.638 94.632ZM127.885 91.544C128.471 91.544 128.919 91.672 129.229 91.928C129.543 92.1787 129.701 92.5653 129.701 93.088V96H128.869L128.637 95.408H128.605C128.418 95.6427 128.221 95.8133 128.013 95.92C127.805 96.0267 127.519 96.08 127.157 96.08C126.767 96.08 126.445 95.968 126.189 95.744C125.933 95.5147 125.805 95.1653 125.805 94.696C125.805 94.232 125.967 93.8907 126.293 93.672C126.618 93.448 127.106 93.3253 127.757 93.304L128.517 93.28V93.088C128.517 92.8587 128.455 92.6907 128.333 92.584C128.215 92.4773 128.05 92.424 127.837 92.424C127.623 92.424 127.415 92.456 127.213 92.52C127.01 92.5787 126.807 92.6533 126.605 92.744L126.213 91.936C126.447 91.8133 126.706 91.7173 126.989 91.648C127.277 91.5787 127.575 91.544 127.885 91.544ZM128.517 93.976L128.053 93.992C127.669 94.0027 127.402 94.072 127.253 94.2C127.103 94.328 127.029 94.496 127.029 94.704C127.029 94.8853 127.082 95.016 127.189 95.096C127.295 95.1707 127.434 95.208 127.605 95.208C127.861 95.208 128.077 95.1333 128.253 94.984C128.429 94.8293 128.517 94.6133 128.517 94.336V93.976Z" fill="#3A3A3A"/>
<path d="M62.3791 6H52.23V52.0636H62.3791V6Z" fill="#FFE0B4"/>
<path d="M64.528 8.79559H50.0679V52.0636H64.528V8.79559Z" fill="#FFE0B4"/>
<path d="M66.9471 13.8416H47.6624V53.1192H66.9471V13.8416Z" fill="#FFE0B4"/>
<path d="M69.6093 20.1288H45V78.1636H69.6093V20.1288Z" fill="#FFE0B4"/>
<path d="M54.0814 22.2632H47.3784V23.6552H54.0814V22.2632Z" fill="white"/>
<path d="M54.0949 18.702H49.5271V20.094H54.0949V18.702Z" fill="white"/>
<path d="M54.0949 15.4888H49.5271V16.8808H54.0949V15.4888Z" fill="white"/>
<path d="M54.0949 10.9068H52.1895V12.2988H54.0949V10.9068Z" fill="white"/>
<path d="M54.0814 25.4764H47.3784V26.8684H54.0814V25.4764Z" fill="white"/>
<path d="M54.0814 28.6896H47.3784V30.0816H54.0814V28.6896Z" fill="white"/>
<path d="M54.0814 31.9144H47.3784V33.3064H54.0814V31.9144Z" fill="white"/>
<path d="M54.0814 35.1276H47.3784V36.5196H54.0814V35.1276Z" fill="white"/>
<path d="M54.0814 38.3408H47.3784V39.7328H54.0814V38.3408Z" fill="white"/>
<path d="M54.0814 41.554H47.3784V42.946H54.0814V41.554Z" fill="white"/>
<path d="M54.0814 44.7788H47.3784V46.1708H54.0814V44.7788Z" fill="white"/>
<path d="M54.0814 47.992H47.3784V49.384H54.0814V47.992Z" fill="white"/>
<path d="M54.0814 51.2052H47.3784V52.5972H54.0814V51.2052Z" fill="white"/>
<path d="M54.0814 54.43H47.3784V55.822H54.0814V54.43Z" fill="white"/>
<path d="M54.0814 57.6432H47.3784V59.0352H54.0814V57.6432Z" fill="white"/>
<path d="M54.0814 60.8564H47.3784V62.2484H54.0814V60.8564Z" fill="white"/>
<path d="M54.0814 64.0696H47.3784V65.4616H54.0814V64.0696Z" fill="white"/>
<path d="M87.5484 1H62V6.8H87.5484V1Z" fill="#F4BC6A"/>
<path d="M86.8064 6H63.5806V77.92H86.8064V6Z" fill="#F4BC6A"/>
<path d="M82.5969 10.3398H66.2988V12.1078H82.5969V10.3398Z" fill="white"/>
<path d="M82.5969 14.7484H66.2988V16.5164H82.5969V14.7484Z" fill="white"/>
<path d="M82.5969 19.157H66.2988V20.9251H82.5969V19.157Z" fill="white"/>
<path d="M82.5969 23.5656H66.2988V25.3337H82.5969V23.5656Z" fill="white"/>
<path d="M82.5969 27.9742H66.2988V29.7423H82.5969V27.9742Z" fill="white"/>
<path d="M82.5969 32.3828H66.2988V34.1509H82.5969V32.3828Z" fill="white"/>
<path d="M82.5969 36.7915H66.2988V38.5595H82.5969V36.7915Z" fill="white"/>
<path d="M82.5969 41.2001H66.2988V42.9681H82.5969V41.2001Z" fill="white"/>
<path d="M82.5969 45.6087H66.2988V47.3767H82.5969V45.6087Z" fill="white"/>
<path d="M82.5969 50.0173H66.2988V51.7854H82.5969V50.0173Z" fill="white"/>
<path d="M82.5969 54.426H66.2988V56.194H82.5969V54.426Z" fill="white"/>
<path d="M82.5969 58.8346H66.2988V60.6026H82.5969V58.8346Z" fill="white"/>
<path d="M33.048 88H31.5L29.169 84.742V88H27.81V81.574H29.169V84.688L31.473 81.574H32.922L30.582 84.661L33.048 88ZM39.5131 84.778C39.5131 85.444 39.4021 86.026 39.1801 86.524C38.9641 87.016 38.6311 87.4 38.1811 87.676C37.7311 87.952 37.1551 88.09 36.4531 88.09C35.7571 88.09 35.1811 87.952 34.7251 87.676C34.2751 87.4 33.9391 87.013 33.7171 86.515C33.5011 86.017 33.3931 85.435 33.3931 84.769C33.3931 84.103 33.5011 83.524 33.7171 83.032C33.9391 82.54 34.2751 82.159 34.7251 81.889C35.1811 81.613 35.7601 81.475 36.4621 81.475C37.1581 81.475 37.7311 81.613 38.1811 81.889C38.6311 82.159 38.9641 82.543 39.1801 83.041C39.4021 83.533 39.5131 84.112 39.5131 84.778ZM34.8241 84.778C34.8241 85.45 34.9531 85.981 35.2111 86.371C35.4691 86.755 35.8831 86.947 36.4531 86.947C37.0351 86.947 37.4521 86.755 37.7041 86.371C37.9561 85.981 38.0821 85.45 38.0821 84.778C38.0821 84.1 37.9561 83.569 37.7041 83.185C37.4521 82.801 37.0381 82.609 36.4621 82.609C35.8861 82.609 35.4691 82.801 35.2111 83.185C34.9531 83.569 34.8241 84.1 34.8241 84.778ZM43.5622 88L42.0142 82.96H41.9782C41.9842 83.08 41.9932 83.26 42.0052 83.5C42.0172 83.74 42.0292 83.998 42.0412 84.274C42.0532 84.544 42.0592 84.79 42.0592 85.012V88H40.8442V81.574H42.6982L44.2192 86.488H44.2462L45.8572 81.574H47.7112V88H46.4422V84.958C46.4422 84.754 46.4452 84.52 46.4512 84.256C46.4632 83.992 46.4722 83.743 46.4782 83.509C46.4902 83.269 46.4992 83.089 46.5052 82.969H46.4692L44.8132 88H43.5622ZM52.0524 88L50.5044 82.96H50.4684C50.4744 83.08 50.4834 83.26 50.4954 83.5C50.5074 83.74 50.5194 83.998 50.5314 84.274C50.5434 84.544 50.5494 84.79 50.5494 85.012V88H49.3344V81.574H51.1884L52.7094 86.488H52.7364L54.3474 81.574H56.2014V88H54.9324V84.958C54.9324 84.754 54.9354 84.52 54.9414 84.256C54.9534 83.992 54.9624 83.743 54.9684 83.509C54.9804 83.269 54.9894 83.089 54.9954 82.969H54.9594L53.3034 88H52.0524ZM61.5236 88H57.8246V81.574H61.5236V82.69H59.1836V84.103H61.3616V85.219H59.1836V86.875H61.5236V88ZM64.9128 81.574C65.7408 81.574 66.3438 81.754 66.7218 82.114C67.1058 82.468 67.2978 82.957 67.2978 83.581C67.2978 83.953 67.2198 84.304 67.0638 84.634C66.9078 84.958 66.6468 85.219 66.2808 85.417C65.9208 85.615 65.4288 85.714 64.8048 85.714H64.2198V88H62.8608V81.574H64.9128ZM64.8408 82.69H64.2198V84.598H64.6698C65.0538 84.598 65.3568 84.523 65.5788 84.373C65.8068 84.217 65.9208 83.968 65.9208 83.626C65.9208 83.002 65.5608 82.69 64.8408 82.69ZM73.4441 88H72.0851V85.516C71.7071 85.648 71.3591 85.747 71.0411 85.813C70.7291 85.879 70.4141 85.912 70.0961 85.912C69.4961 85.912 69.0251 85.768 68.6831 85.48C68.3471 85.186 68.1791 84.769 68.1791 84.229V81.574H69.5381V83.842C69.5381 84.154 69.6101 84.388 69.7541 84.544C69.8981 84.7 70.1411 84.778 70.4831 84.778C70.7351 84.778 70.9871 84.751 71.2391 84.697C71.4911 84.643 71.7731 84.562 72.0851 84.454V81.574H73.4441V88ZM78.759 88H75.06V81.574H78.759V82.69H76.419V84.103H78.597V85.219H76.419V86.875H78.759V88ZM82.8231 82.618C82.3011 82.618 81.9021 82.813 81.6261 83.203C81.3501 83.593 81.2121 84.127 81.2121 84.805C81.2121 85.489 81.3381 86.02 81.5901 86.398C81.8481 86.77 82.2591 86.956 82.8231 86.956C83.0871 86.956 83.3481 86.926 83.6061 86.866C83.8701 86.806 84.1551 86.722 84.4611 86.614V87.757C84.1791 87.871 83.9001 87.955 83.6241 88.009C83.3481 88.063 83.0391 88.09 82.6971 88.09C82.0371 88.09 81.4911 87.955 81.0591 87.685C80.6331 87.409 80.3181 87.025 80.1141 86.533C79.9101 86.035 79.8081 85.456 79.8081 84.796C79.8081 84.148 79.9251 83.575 80.1591 83.077C80.3931 82.579 80.7321 82.189 81.1761 81.907C81.6261 81.625 82.1751 81.484 82.8231 81.484C83.1411 81.484 83.4591 81.526 83.7771 81.61C84.1011 81.688 84.4101 81.796 84.7041 81.934L84.2631 83.041C84.0231 82.927 83.7801 82.828 83.5341 82.744C83.2941 82.66 83.0571 82.618 82.8231 82.618ZM91.0646 88H89.5166L87.1856 84.742V88H85.8266V81.574H87.1856V84.688L89.4896 81.574H90.9386L88.5986 84.661L91.0646 88ZM95.8065 88L95.3385 86.47H92.9985L92.5305 88H91.0635L93.3315 81.547H94.9965L97.2735 88H95.8065ZM95.0145 85.327L94.5465 83.833C94.5165 83.731 94.4775 83.602 94.4295 83.446C94.3815 83.29 94.3335 83.131 94.2855 82.969C94.2375 82.807 94.1985 82.666 94.1685 82.546C94.1385 82.666 94.0965 82.816 94.0425 82.996C93.9945 83.17 93.9465 83.338 93.8985 83.5C93.8565 83.656 93.8235 83.767 93.7995 83.833L93.3405 85.327H95.0145ZM100.247 85.534L98.7443 88H97.2323L99.0593 85.174C98.8853 85.102 98.7113 84.997 98.5373 84.859C98.3633 84.715 98.2193 84.526 98.1053 84.292C97.9913 84.052 97.9343 83.758 97.9343 83.41C97.9343 82.816 98.1473 82.363 98.5733 82.051C98.9993 81.733 99.5963 81.574 100.364 81.574H102.452V88H101.093V85.534H100.247ZM101.093 82.69H100.418C100.07 82.69 99.7973 82.753 99.5993 82.879C99.4073 83.005 99.3113 83.215 99.3113 83.509C99.3113 83.791 99.4043 84.016 99.5903 84.184C99.7823 84.346 100.07 84.427 100.454 84.427H101.093V82.69Z" fill="#F4BC6A"/>
<path d="M0 78L66 76.5L128 78L66 79L0 78Z" fill="#F4BC6A"/>
</svg>
