<svg width="20" height="20" viewBox="0 0 20 20" fill="none" xmlns="http://www.w3.org/2000/svg">
<path d="M19.9563 15.4963C19.8997 15.3259 19.5398 15.0748 18.8768 14.7437C18.6972 14.6393 18.4413 14.4974 18.1101 14.3175C17.7787 14.1375 17.4778 13.9717 17.2081 13.8202C16.9379 13.6687 16.6847 13.5219 16.4481 13.3801C16.4103 13.3517 16.292 13.2689 16.0931 13.1313C15.894 12.9941 15.7262 12.8923 15.5886 12.8258C15.4514 12.7598 15.3163 12.7266 15.1837 12.7266C14.9944 12.7266 14.7579 12.8616 14.4739 13.1313C14.1899 13.4014 13.9294 13.6947 13.6928 14.0122C13.4561 14.3296 13.2051 14.6229 12.9403 14.8928C12.675 15.1628 12.457 15.2977 12.2868 15.2977C12.2013 15.2977 12.0947 15.2739 11.967 15.2268C11.8394 15.1795 11.7422 15.139 11.6756 15.1063C11.6095 15.0729 11.4961 15.0068 11.335 14.9071C11.1736 14.8076 11.0839 14.7532 11.065 14.7437C9.7677 14.0238 8.65511 13.1999 7.727 12.2722C6.79918 11.3439 5.9752 10.2314 5.25555 8.93402C5.24609 8.91507 5.19151 8.82507 5.09216 8.66417C4.99266 8.50313 4.92634 8.38964 4.8932 8.32318C4.86007 8.25696 4.81982 8.15984 4.77256 8.03203C4.72529 7.90422 4.70156 7.79775 4.70156 7.71243C4.70156 7.54208 4.83654 7.32417 5.10644 7.05899C5.37629 6.79396 5.66992 6.54292 5.98704 6.30635C6.3044 6.06978 6.59774 5.80928 6.86769 5.5253C7.13754 5.24117 7.27247 5.00455 7.27247 4.8152C7.27247 4.68271 7.23933 4.54763 7.17312 4.41037C7.10685 4.27281 7.00506 4.10495 6.86769 3.90599C6.73028 3.70713 6.64744 3.58887 6.61898 3.55081C6.47709 3.31425 6.33047 3.06096 6.17878 2.79106C6.02709 2.52121 5.86152 2.22041 5.68152 1.88901C5.50167 1.55777 5.35972 1.302 5.25545 1.1221C4.9242 0.459356 4.6733 0.0993537 4.50281 0.0427365C4.43649 0.0143284 4.33698 0 4.20455 0C3.94872 0 3.61499 0.0472639 3.2031 0.14209C2.79106 0.236767 2.46683 0.336071 2.23006 0.4404C1.75657 0.639157 1.25473 1.21677 0.724381 2.17305C0.241444 3.063 0 3.94385 0 4.81495C0 5.07042 0.0165672 5.31898 0.0497017 5.56067C0.0828362 5.80212 0.14204 6.07441 0.227364 6.37749C0.312539 6.68048 0.381245 6.90556 0.433186 7.05212C0.485176 7.19879 0.582241 7.46153 0.724331 7.84044C0.866223 8.21924 0.951546 8.45114 0.979954 8.53636C1.31135 9.46443 1.70434 10.2929 2.15882 11.0221C2.90658 12.2342 3.92703 13.4868 5.21957 14.7794C6.51217 16.072 7.76451 17.0924 8.97666 17.8404C9.70576 18.2949 10.5346 18.6878 11.4625 19.0194C11.5478 19.0477 11.7797 19.1328 12.1583 19.2752C12.5371 19.4172 12.8 19.5143 12.9466 19.5664C13.0933 19.6185 13.3185 19.6873 13.6212 19.7726C13.9246 19.8579 14.1966 19.9171 14.4381 19.9505C14.6797 19.9832 14.9283 20 15.1838 20C16.0548 20 16.9357 19.7585 17.8258 19.2756C18.782 18.7454 19.3595 18.2435 19.5583 17.7696C19.6629 17.5331 19.762 17.2088 19.8567 16.7968C19.9516 16.3849 19.9988 16.0512 19.9988 15.7955C19.9991 15.6625 19.9848 15.5632 19.9563 15.4963Z" fill="white"/>
</svg>
