<svg width="15" height="15" viewBox="0 0 15 15" fill="none" xmlns="http://www.w3.org/2000/svg">
<g clip-path="url(#clip0)">
<path d="M4.71738 13.1906C10.3781 13.1906 13.4736 8.50093 13.4736 4.43438C13.4736 4.30117 13.4709 4.16853 13.4649 4.03658C14.0657 3.60216 14.588 3.06005 15 2.44299C14.4486 2.68812 13.8552 2.85303 13.2327 2.92753C13.8681 2.54644 14.356 1.9438 14.586 1.22533C13.9913 1.57781 13.3328 1.83393 12.6318 1.97229C12.0702 1.37411 11.2706 1 10.3853 1C8.68585 1 7.30764 2.37821 7.30764 4.07709C7.30764 4.31868 7.33465 4.55351 7.3874 4.77884C4.82964 4.6501 2.56154 3.42558 1.04382 1.56339C0.779573 2.01818 0.627137 2.54656 0.627137 3.11029C0.627137 4.17791 1.1705 5.12057 1.99665 5.67194C1.49174 5.65638 1.0175 5.51779 0.602876 5.28708C0.602418 5.30001 0.602418 5.3126 0.602418 5.32633C0.602418 6.81681 1.66317 8.06124 3.07149 8.34323C2.81285 8.41361 2.54071 8.45149 2.25998 8.45149C2.062 8.45149 1.86905 8.43203 1.68148 8.39598C2.07333 9.61879 3.2095 10.5086 4.55647 10.5335C3.50316 11.3591 2.17621 11.8508 0.73414 11.8508C0.486031 11.8508 0.240899 11.8367 0 11.8083C1.36196 12.6812 2.97936 13.1907 4.71749 13.1907" fill="#464646"/>
</g>
<defs>
<clipPath id="clip0">
<rect width="15" height="15" fill="white"/>
</clipPath>
</defs>
</svg>
