<svg width="30" height="30" viewBox="0 0 30 30" fill="none" xmlns="http://www.w3.org/2000/svg">
<g clip-path="url(#clip0)">
<path d="M1.87507 2.04125C-0.482434 4.49 6.59674e-05 7.09125 6.59674e-05 14.9938C6.59674e-05 21.5563 -1.14493 28.135 4.84757 29.6838C6.71882 30.165 23.2988 30.165 25.1676 29.6813C27.6626 29.0375 29.6926 27.0138 29.9701 23.485C30.0088 22.9925 30.0088 7.00375 29.9688 6.50125C29.6738 2.7425 27.3601 0.576247 24.3113 0.137497C23.6126 0.036247 23.4726 0.00624699 19.8876 -3.01376e-06C7.17132 0.00624699 4.38382 -0.560003 1.87507 2.04125Z" fill="url(#paint0_linear)"/>
<path d="M14.9974 3.92378C10.4586 3.92378 6.14864 3.52003 4.50239 7.74502C3.82239 9.49002 3.92114 11.7563 3.92114 15.0013C3.92114 17.8488 3.82989 20.525 4.50239 22.2563C6.14489 26.4838 10.4899 26.0788 14.9949 26.0788C19.3411 26.0788 23.8224 26.5313 25.4886 22.2563C26.1699 20.4938 26.0699 18.2613 26.0699 15.0013C26.0699 10.6738 26.3086 7.88002 24.2099 5.78252C22.0849 3.65753 19.2111 3.92378 14.9924 3.92378H14.9974ZM14.0049 5.92003C23.4724 5.90503 24.6774 4.85253 24.0124 19.4738C23.7761 24.645 19.8386 24.0775 14.9986 24.0775C6.17364 24.0775 5.91989 23.825 5.91989 14.9963C5.91989 6.06503 6.61989 5.92503 14.0049 5.91753V5.92003ZM20.9099 7.75877C20.1761 7.75877 19.5811 8.35377 19.5811 9.08752C19.5811 9.82127 20.1761 10.4163 20.9099 10.4163C21.6436 10.4163 22.2386 9.82127 22.2386 9.08752C22.2386 8.35377 21.6436 7.75877 20.9099 7.75877ZM14.9974 9.31252C11.8561 9.31252 9.30989 11.86 9.30989 15.0013C9.30989 18.1425 11.8561 20.6888 14.9974 20.6888C18.1386 20.6888 20.6836 18.1425 20.6836 15.0013C20.6836 11.86 18.1386 9.31252 14.9974 9.31252ZM14.9974 11.3088C19.8786 11.3088 19.8849 18.6938 14.9974 18.6938C10.1174 18.6938 10.1099 11.3088 14.9974 11.3088Z" fill="white"/>
</g>
<defs>
<linearGradient id="paint0_linear" x1="1.93259" y1="28.0839" x2="29.8144" y2="3.95249" gradientUnits="userSpaceOnUse">
<stop stop-color="#FFDD55"/>
<stop offset="0.5" stop-color="#FF543E"/>
<stop offset="1" stop-color="#C837AB"/>
</linearGradient>
<clipPath id="clip0">
<rect width="30" height="30" fill="white"/>
</clipPath>
</defs>
</svg>
