<svg width="30" height="30" viewBox="0 0 30 30" fill="none" xmlns="http://www.w3.org/2000/svg">
<circle cx="15" cy="15" r="15" fill="#56CCF2"/>
<path d="M12.7739 20.9999C17.3025 20.9999 19.7789 16.3836 19.7789 12.3806C19.7789 12.2495 19.7767 12.119 19.7719 11.9891C20.2526 11.5615 20.6704 11.0278 21 10.4204C20.5589 10.6617 20.0841 10.824 19.5862 10.8974C20.0945 10.5222 20.4847 9.92903 20.6688 9.22181C20.1931 9.56877 19.6663 9.82089 19.1054 9.95708C18.6562 9.36826 18.0165 9 17.3082 9C15.9487 9 14.8461 10.3567 14.8461 12.029C14.8461 12.2668 14.8677 12.4979 14.9099 12.7197C12.8637 12.593 11.0492 11.3876 9.83505 9.55458C9.62366 10.0023 9.50171 10.5224 9.50171 11.0773C9.50171 12.1282 9.9364 13.0561 10.5973 13.5989C10.1934 13.5835 9.814 13.4471 9.4823 13.22C9.48193 13.2327 9.48193 13.2451 9.48193 13.2586C9.48193 14.7258 10.3305 15.9508 11.4572 16.2283C11.2503 16.2976 11.0326 16.3349 10.808 16.3349C10.6496 16.3349 10.4952 16.3158 10.3452 16.2803C10.6587 17.4839 11.5676 18.3598 12.6452 18.3844C11.8025 19.197 10.741 19.6811 9.58731 19.6811C9.38882 19.6811 9.19272 19.6671 9 19.6392C10.0896 20.4985 11.3835 21 12.774 21" fill="white"/>
</svg>
