<svg width="30" height="30" viewBox="0 0 30 30" fill="none" xmlns="http://www.w3.org/2000/svg">
<g clip-path="url(#clip0)">
<path d="M28.5645 11.8652C28.5645 18.6932 26.4844 24.9609 15.293 25.7226C5.47851 25.371 2.57813 20.1874 2.57813 13.3593C2.57812 3.1347 8.27075 0.996033 15.293 0.996033C22.3152 0.996033 28.5645 5.03712 28.5645 11.8652Z" fill="#8E24AA"/>
<path d="M8.90625 23.7011L13.4766 25.0488L11.543 27.3339L9.16992 29.5898L8.90625 26.9824V23.7011Z" fill="#8E24AA"/>
<path d="M28.9437 17.3662C29.8387 9.83247 28.5137 5.07622 26.1237 2.92497L26.125 2.92372C22.2675 -0.75003 9.23998 -1.29378 4.62498 3.08872C2.55248 5.23247 1.82248 8.37872 1.74248 12.2737C1.66248 16.17 1.56748 23.4687 8.36873 25.4487H8.37498L8.36873 28.4725C8.36873 28.4725 8.32248 29.6975 9.10498 29.9437C9.99998 30.2337 10.405 29.665 13.1887 26.34C17.8437 26.7437 21.4187 25.8187 21.825 25.6837C22.765 25.3687 28.0837 24.665 28.9437 17.3662ZM13.6475 24.2125C13.6475 24.2125 10.7012 27.8862 9.78498 28.84C9.48498 29.15 9.15623 29.1212 9.16123 28.5062C9.16123 28.1025 9.18373 23.4862 9.18373 23.4862C3.41748 21.8337 3.75748 15.6187 3.81998 12.3675C3.88248 9.11497 4.47748 6.45122 6.23248 4.65747C10.2812 0.86122 21.7025 1.70997 24.6125 4.44497C28.17 7.59872 26.9037 16.5087 26.9112 16.8125C26.18 22.905 21.87 23.2912 21.0775 23.555C20.7387 23.6675 17.595 24.4762 13.6475 24.2125Z" fill="#8E24AA"/>
<path d="M15.2775 5.37122C14.7963 5.37122 14.7963 6.12122 15.2775 6.12747C19.0113 6.15622 22.0863 8.75872 22.12 13.5325C22.12 14.0362 22.8575 14.03 22.8513 13.5262H22.85C22.81 8.38247 19.4525 5.39997 15.2775 5.37122Z" fill="white"/>
<path d="M20.1887 12.7412C20.1775 13.2387 20.9137 13.2625 20.92 12.7587C20.9812 9.92248 19.2325 7.58623 15.9462 7.33998C15.465 7.30498 15.415 8.06123 15.895 8.09623C18.745 8.31248 20.2462 10.2575 20.1887 12.7412Z" fill="white"/>
<path d="M19.4011 15.9675C18.7836 15.61 18.1549 15.8325 17.8949 16.1838L17.3511 16.8875C17.0749 17.245 16.5586 17.1975 16.5586 17.1975C12.7911 16.2013 11.7836 12.2588 11.7836 12.2588C11.7836 12.2588 11.7374 11.725 12.0824 11.4388L12.7624 10.8763C13.1024 10.6063 13.3174 9.95626 12.9711 9.31751C12.0461 7.64626 11.4249 7.07001 11.1086 6.62751C10.7761 6.21126 10.2761 6.11751 9.75615 6.39876H9.7449C8.66365 7.03126 7.4799 8.21501 7.85865 9.43376C8.5049 10.7188 9.6924 14.815 13.4774 17.91C15.2561 19.3738 18.0711 20.8738 19.2661 21.22L19.2774 21.2375C20.4549 21.63 21.5999 20.4 22.2111 19.2863V19.2775C22.4824 18.7388 22.3924 18.2288 21.9961 17.895C21.2936 17.21 20.2336 16.4538 19.4011 15.9675Z" fill="white"/>
<path d="M16.4612 10.1299C17.6624 10.1999 18.2449 10.8274 18.3074 12.1162C18.3299 12.6199 19.0612 12.5849 19.0387 12.0812C18.9587 10.3987 18.0812 9.46116 16.5012 9.37366C16.0199 9.34491 15.9749 10.1012 16.4612 10.1299Z" fill="white"/>
</g>
<defs>
<clipPath id="clip0">
<rect width="30" height="30" fill="white"/>
</clipPath>
</defs>
</svg>
